<?xml version="1.0" encoding="iso-8859-1"?>
<!-- Generator: Adobe Illustrator 17.1.0, SVG Export Plug-In . SVG Version: 6.00 Build 0)  -->
<!DOCTYPE svg PUBLIC "-//W3C//DTD SVG 1.1//EN" "http://www.w3.org/Graphics/SVG/1.1/DTD/svg11.dtd">
<svg version="1.1" xmlns="http://www.w3.org/2000/svg" xmlns:xlink="http://www.w3.org/1999/xlink" x="0px" y="0px"
	 viewBox="0 0 1010 1010" style="enable-background:new 0 0 1010 1010;" xml:space="preserve">
<g id="_x32_4-technical-support">
	<path id="label_31_" style="fill:#394145;" d="M504.994,0C783.904,0,1010,226.086,1010,505c0,278.902-226.096,505-505.006,505
		C226.108,1010,0,783.902,0,505C0,226.086,226.108,0,504.994,0z"/>
	<g id="icon_31_">
		<path style="fill:#FFFFFF;" d="M499.133,359.391c0-3.208,2.633-5.83,5.866-5.83c3.233,0,5.855,2.621,5.855,5.83v20.553
			c0,3.221-2.621,5.842-5.855,5.842c-3.233,0-5.866-2.621-5.866-5.842V359.391z M525.712,442.522
			c-1.702-2.107-4.079-3.148-7.14-3.148c-3.307,0-5.806,1.2-7.533,3.588c-1.727,2.377-2.56,5.169-2.498,8.402h-11.501
			c-0.27-5.388,1.457-10.484,5.193-15.273c3.749-4.79,9.224-7.178,16.425-7.178c6.798,0,12.064,2.118,15.812,6.369
			c3.749,4.251,5.61,8.905,5.61,13.951c0,5.009-1.347,8.867-4.042,11.612c-2.694,2.768-5.364,5.132-8.035,7.117l-12.064,8.929
			c-1.593,1.188-2.817,2.205-3.699,3.062c-0.882,0.858-1.629,1.96-2.266,3.32h29.862v10.877h-43.469
			c0-4.716,0.674-9.236,2.008-13.621c1.336-4.372,4.985-8.683,11-12.995l10.815-7.667c1.738-1.298,3.491-2.732,5.181-4.238
			c1.715-1.544,2.609-3.626,2.718-6.222C528.223,446.906,527.414,444.604,525.712,442.522z M417.388,435.943
			c6.749-4.568,13.951-15.2,20.148-12.823c7.656,8.181,17.724,20.32,26.603,30.695c2.756,3.233,6.798,7.421,6.872,10.191
			c0.219,6.54-10.339,10.508-15.716,16.73c-12.505-14.648-25.023-29.334-37.565-43.983
			C417.449,436.47,417.167,436.189,417.388,435.943z M379.92,510.88h-20.504c-3.246,0-5.867-2.621-5.867-5.867
			s2.621-5.867,5.867-5.867h20.504c3.246,0,5.879,2.621,5.879,5.867S383.166,510.88,379.92,510.88z M510.854,650.609
			c0,3.233-2.621,5.855-5.855,5.855c-3.233,0-5.866-2.621-5.866-5.855v-20.528c0-3.246,2.633-5.867,5.866-5.867
			c3.233,0,5.855,2.621,5.855,5.867V650.609z M503.2,599.679c-11.293-5.009-28.061-12.309-61.475-51.393
			c-33.401-39.084-37.406-67.379-37.259-78.243c0.123-10.044,3.038-20.467,7.643-29.58c12.604,13.743,25.072,29.176,37.627,43.58
			c-0.527,1.568-3.001,3.577-3.001,5.463c0,1.604,3.552,9.394,4.446,11.243c7.435,14.87,25.673,36.354,40.015,48.075
			c6.541,5.329,14.123,13.277,20.689,7.949c12.713,14.87,25.414,29.739,38.129,44.609
			C535.093,606.086,518.056,606.294,503.2,599.679z M554.68,597.009c-12.518-14.673-25.036-29.334-37.567-43.983
			c-0.281-0.27-0.538-0.563-0.33-0.808c6.7-4.386,13.583-14.834,19.561-13.058c2.388,0.686,6.259,6.468,8.745,9.346
			c7.986,9.369,19.217,22.194,25.428,30.228C571.165,585.41,561.281,591.424,554.68,597.009z M589.158,485.22h-6.638v9.774h-11.049
			l-0.098-9.774h-27.889v-12.567l27.29-42.967h11.746v44.805h6.638V485.22z M650.584,510.88h-20.517
			c-3.234,0-5.855-2.621-5.855-5.867s2.621-5.867,5.855-5.867h20.517c3.245,0,5.879,2.621,5.879,5.867
			S653.829,510.88,650.584,510.88z M555.058,474.49h16.315v-25.17l-0.502-0.159L555.058,474.49z"/>
		<g id="_x33_3">
			<path style="fill:#FC6220;" d="M761.223,469.185l-55.436-6.565c-5.292-25.208-15.236-48.687-28.894-69.607l34.589-43.886
				c2.475-3.087,2.205-7.913-0.637-10.717l-39.231-39.256c-2.817-2.804-7.643-3.112-10.79-0.65l-43.862,34.602
				c-20.884-13.632-44.363-23.615-69.607-28.881l-6.516-55.436c-0.503-3.932-4.104-7.178-8.097-7.178h-55.497
				c-3.98,0-7.593,3.246-8.071,7.178l-6.566,55.436c-25.219,5.267-48.736,15.249-69.57,28.881l-43.898-34.602
				c-3.112-2.462-7.937-2.155-10.766,0.65l-39.207,39.256c-2.842,2.804-3.161,7.631-0.661,10.754l34.564,43.849
				c-13.62,20.921-23.578,44.4-28.869,69.607l-55.424,6.565c-3.943,0.454-7.177,4.116-7.177,8.072v55.51
				c0,3.956,3.233,7.593,7.177,8.047l55.424,6.541c5.29,25.255,15.249,48.748,28.869,69.656l-34.564,43.886
				c-2.5,3.087-2.181,7.924,0.661,10.754l39.207,39.244c2.817,2.806,7.655,3.063,10.79,0.601l43.874-34.578
				c20.834,13.633,44.351,23.591,69.57,28.882l6.566,55.411c0.478,3.957,4.091,7.178,8.071,7.178h55.497
				c3.993,0,7.594-3.221,8.097-7.178l6.516-55.411c25.244-5.292,48.723-15.249,69.607-28.882l43.862,34.578
				c3.147,2.462,7.973,2.18,10.79-0.601l39.231-39.244c2.842-2.83,3.112-7.667,0.637-10.754l-34.589-43.886
				c13.657-20.908,23.602-44.401,28.894-69.656l55.436-6.541c3.908-0.454,7.178-4.091,7.178-8.047v-55.51
				C768.401,473.302,765.131,469.639,761.223,469.185z M504.976,676.22c-94.533,0-171.159-76.7-171.159-171.208
				c0-94.533,76.626-171.208,171.159-171.208c94.556,0,171.208,76.675,171.208,171.208
				C676.183,599.52,599.532,676.22,504.976,676.22z"/>
		</g>
	</g>
</g>
<g id="Layer_1">
</g>
</svg>
