<?xml version="1.0" encoding="iso-8859-1"?>
<!-- Generator: Adobe Illustrator 17.1.0, SVG Export Plug-In . SVG Version: 6.00 Build 0)  -->
<!DOCTYPE svg PUBLIC "-//W3C//DTD SVG 1.1//EN" "http://www.w3.org/Graphics/SVG/1.1/DTD/svg11.dtd">
<svg version="1.1" xmlns="http://www.w3.org/2000/svg" xmlns:xlink="http://www.w3.org/1999/xlink" x="0px" y="0px"
	 viewBox="0 0 1010 1009.994" style="enable-background:new 0 0 1010 1009.994;" xml:space="preserve">
<g id="cloud-network">
	<path id="label_9_" style="fill:#0099CC;" d="M505,0c278.902,0,505,226.08,505,504.994c0,278.903-226.099,505-505,505
		c-278.903,0-505-226.097-505-505C0,226.08,226.097,0,505,0z"/>
	<g id="icon_9_">
		<path style="fill:#FFFFFF;" d="M640.565,382.978c-10.13,0-24.865,6.235-34.234,8.684c-17.503-49.704-59.943-90.246-115.649-90.246
			c-68.236,0-123.978,53.464-127.664,120.805c-4.153-0.551-8.378-0.943-12.69-0.943c-53.108,0-96.173,43.029-96.173,96.137
			c0,53.109,43.065,96.151,96.173,96.151c39.501,0,229.314,0,290.238,0c63.691,0,115.281-51.615,115.281-115.294
			C755.846,434.605,704.256,382.978,640.565,382.978z"/>
		<g>
			<rect x="598.087" y="682.904" style="fill:#FFFFFF;" width="132.735" height="12.347"/>
			<rect x="279.213" y="682.904" style="fill:#FFFFFF;" width="132.735" height="12.347"/>
			<polygon style="fill:#394145;" points="493.805,632.612 516.232,632.612 516.232,671.194 587.847,671.194 587.847,708.577 
				422.213,708.577 422.213,671.194 493.805,671.194 			"/>
		</g>
	</g>
</g>
<g id="Layer_1">
</g>
</svg>
