<?xml version="1.0" encoding="iso-8859-1"?>
<!-- Generator: Adobe Illustrator 17.1.0, SVG Export Plug-In . SVG Version: 6.00 Build 0)  -->
<!DOCTYPE svg PUBLIC "-//W3C//DTD SVG 1.1//EN" "http://www.w3.org/Graphics/SVG/1.1/DTD/svg11.dtd">
<svg version="1.1" xmlns="http://www.w3.org/2000/svg" xmlns:xlink="http://www.w3.org/1999/xlink" x="0px" y="0px"
	 viewBox="0 0 1010 1010" style="enable-background:new 0 0 1010 1010;" xml:space="preserve">
<g id="customer-service">
	<path id="label_28_" style="fill:#FC6220;" d="M505,0c278.914,0,505,226.098,505,505s-226.086,505-505,505
		C226.11,1010,0,783.902,0,505S226.11,0,505,0z"/>
	<g id="icon_28_">
		<g id="icon_13_">
			<path style="fill:#394145;" d="M653.475,597.417l0.011-0.135c-2.046-1.016-4.189-1.997-6.32-3.049
				c-1.249-0.637-2.547-1.225-3.882-1.863c-4.348-2.046-8.856-4.041-13.511-5.866c-0.882-0.405-1.751-0.748-2.609-1.102
				c-15.776-6.137-32.985-11.11-51.272-14.723c-2.388-7.875-131.008-7.446-132.196-1.837c-21.949,3.651-42.343,9.37-60.874,16.561
				c-0.87,0.355-1.716,0.697-2.572,1.09c-4.691,1.825-9.186,3.833-13.583,5.879c-1.336,0.637-2.598,1.225-3.858,1.85
				c-2.132,1.065-4.312,2.046-6.321,3.062l0.013,0.135c-43.616,23.271-70.991,56.611-70.991,93.662v100.229c0.686,0,1.371,0,2.046,0
				v0.036h432.77c0.699,0,1.385-2.205,2.071-4.459c0.722-2.241,1.409-4.47,2.095-4.508V691.08
				C724.49,654.028,697.091,620.688,653.475,597.417z"/>
			<path style="fill:#394145;" d="M570.786,544.884c18.716-1.837,74.727-16.205,68.995-23.296
				c-18.091-22.329-10.498-59.013-7.276-83.363c6.883-52.766,15.996-77.104-4.948-136.423
				c-15.788-44.644-64.353-86.975-123.647-82.872c-23.554,1.593-40.322,8.109-64.17,24.239
				c-50.267,5.929-84.918,50.696-81.084,128.964c2.205,44.914,37.48,94.888,5.39,147.812c-5.464,9.088,50.658,35.974,81.965,31.748
				C445.62,557.45,571.753,554.193,570.786,544.884z"/>
			<path style="fill:#0099CC;" d="M512.325,240.61c42.526,5.623,75.828,38.448,87.905,81.011
				c-18.005-31.16-49.532-53.917-87.478-58.964c-46.764-6.172-90.418,16.193-113.971,53.795
				C416.53,266.565,462.706,234.02,512.325,240.61z"/>
			<path style="fill:#FFFFFF;" d="M440.573,499.467c-0.82-0.967-1.677-1.96-2.412-2.952c-11.183-14.134-20.933-30.364-27.241-47.229
				c-1.899-17.38-2.303-34.969,0-52.362c3.858-29.421,15.457-58.314,40.873-84.257c3.748,9.113,9.505,19.537,17.392,29.409
				c12.885,16.192,31.613,31.001,56.991,36.096c-13.705-8.99-27.509-22.108-39.108-39.966c-2.572-3.932-5.047-7.998-7.374-12.408
				c3.662,4.226,7.606,8.158,11.71,11.832c31.98,28.612,75.303,40.236,90.772,44.07c-19.61-11.979-34.823-23.701-50.598-40.224
				c22.831,12.028,43.188,23.578,62.54,54.261c0.197,0.391,0.368,0.771,0.539,1.151c-2.033,34.823-22.391,64.598-51.627,79.664
				c-3.662-5.463-11.109-9.236-19.744-9.199c-12.249,0.109-22.085,7.729-22.047,16.987c0.06,9.298,10.043,16.769,22.279,16.683
				c12.249-0.073,22.084-7.692,22.01-16.964c0-1.09-0.159-2.12-0.416-3.172c27.963-13.988,47.72-39.796,53.587-74.054
				c0.061,0.219,0.147,0.428,0.208,0.636c1.997,7.79,2.73,17.345,2.511,27.485c-5.009,20.272-15.495,41.718-30.572,61.867
				c-0.735,0.943-1.457,1.886-2.205,2.853c-0.453,0.576-0.882,1.151-1.311,1.691c-0.368,0.453-0.686,0.844-1.054,1.286
				c-18.066,22.439-38.534,38.349-53.636,42.073c-2.645,0.661-5.144,0.956-7.446,0.845c-1.028-0.074-2.143-0.221-3.295-0.454
				c-14.637-2.633-35.409-16.964-54.15-37.345C445.326,505.088,442.913,502.309,440.573,499.467z"/>
			<path style="fill:#FFFFFF;" d="M588.705,597.479c-1.017,1.09-2.046,2.167-3.038,3.257
				c-22.476,24.069-50.378,119.165-80.692,119.165c-28.624,0-55.154-92.316-76.907-115.135c-1.054-1.102-2.009-2.143-3.014-3.246
				c-6.295-6.688-12.248-13.29-17.588-19.071c11-2.891,22.561-5.315,34.516-7.238c1.568-0.282,3.159-0.465,4.727-0.674
				c0.208-0.662,0.417-1.274,0.563-1.96c0.159-0.699,0.306-1.47,0.478-2.169c0.184-0.722,0.319-1.445,0.465-2.192
				c0,0,0-0.024,0.025-0.024c1.396-6.97,2.106-14.012,2.339-21.031c0.404-11.99-0.576-23.455-1.789-32.421
				c13.84,14.257,28.502,25.17,40.996,30.878c5.598,2.535,10.741,4.054,15.164,4.311c0.44,0.025,0.918,0.025,1.371,0.025
				c5.708,0,12.298-2.07,19.365-5.732c12.799-6.7,27.033-18.862,40.113-34.21c-0.661,11.416,0.135,32.471,0.038,32.618
				c-0.307,0.416,3.025,19.487,5.193,27.094c0,0,0,0.024,0,0.073c0.233,0.748,0.503,1.47,0.722,2.217
				c0.246,0.82,0.465,1.519,0.674,2.278c0.246,0.601,0.393,1.188,0.564,1.825c1.666,0.257,3.344,0.539,4.972,0.833
				c8.465,1.58,16.634,3.418,24.521,5.5C598.209,587.067,593.591,592.211,588.705,597.479z"/>
		</g>
	</g>
</g>
<g id="Layer_1">
</g>
</svg>
