<?xml version="1.0" encoding="iso-8859-1"?>
<!-- Generator: Adobe Illustrator 17.1.0, SVG Export Plug-In . SVG Version: 6.00 Build 0)  -->
<!DOCTYPE svg PUBLIC "-//W3C//DTD SVG 1.1//EN" "http://www.w3.org/Graphics/SVG/1.1/DTD/svg11.dtd">
<svg version="1.1" xmlns="http://www.w3.org/2000/svg" xmlns:xlink="http://www.w3.org/1999/xlink" x="0px" y="0px"
	 viewBox="0 0 1010 1010" style="enable-background:new 0 0 1010 1010;" xml:space="preserve">
<g id="data-connection">
	<path id="label_16_" style="fill:#0099CC;" d="M505.013,0C783.914,0,1010,226.096,1010,504.994
		C1010,783.904,783.914,1010,505.013,1010C226.11,1010,0,783.904,0,504.994C0,226.096,226.11,0,505.013,0z"/>
	<g id="icon_17_">
		<path style="fill:#FFFFFF;" d="M580.976,527.522c0,15.506,44.094,28.122,98.489,28.122c54.395,0,98.49-12.616,98.49-28.122
			c0-15.537-44.095-28.147-98.49-28.147C625.07,499.374,580.976,511.984,580.976,527.522z M580.976,550.046v33.744
			c0,15.506,44.094,28.153,98.489,28.153c54.395,0,98.49-12.646,98.49-28.153v-33.744c-28.122,18.899-89.634,19.664-98.49,19.664
			C670.634,569.71,609.111,568.945,580.976,550.046z M580.976,606.345v33.707c0,15.55,44.094,28.166,98.489,28.166
			c54.395,0,98.49-12.616,98.49-28.166v-33.707c-28.122,18.894-89.634,19.665-98.49,19.665
			C670.634,626.01,609.111,625.239,580.976,606.345z M580.976,662.621v33.744c0,15.506,44.094,28.122,98.489,28.122
			c54.395,0,98.49-12.616,98.49-28.122v-33.744c-28.122,18.899-89.634,19.658-98.49,19.658
			C670.634,682.279,609.111,681.52,580.976,662.621z M330.546,499.374c-54.395,0-98.501,12.61-98.501,28.147
			c0,15.506,44.106,28.122,98.501,28.122c54.382,0,98.489-12.616,98.489-28.122C429.035,511.984,384.929,499.374,330.546,499.374z
			 M232.045,550.046v33.744c0,15.506,44.106,28.153,98.501,28.153c54.382,0,98.489-12.646,98.489-28.153v-33.744
			c-28.134,18.899-89.634,19.664-98.489,19.664C321.703,569.71,260.168,568.945,232.045,550.046z M232.045,606.345v33.707
			c0,15.55,44.106,28.166,98.501,28.166c54.382,0,98.489-12.616,98.489-28.166v-33.707c-28.134,18.894-89.634,19.665-98.489,19.665
			C321.703,626.01,260.168,625.239,232.045,606.345z M232.045,662.621v33.744c0,15.506,44.106,28.122,98.501,28.122
			c54.382,0,98.489-12.616,98.489-28.122v-33.744c-28.134,18.899-89.634,19.658-98.489,19.658
			C321.703,682.279,260.168,681.52,232.045,662.621z M505.697,341.775c54.407,0,98.502-12.572,98.502-28.14
			c0-15.519-44.095-28.122-98.502-28.122s-98.501,12.604-98.501,28.122C407.196,329.203,451.29,341.775,505.697,341.775z
			 M505.697,398.081c54.407,0,98.502-12.635,98.502-28.141v-33.763c-28.148,18.905-89.659,19.678-98.502,19.678
			c-8.842,0-70.33-0.773-98.501-19.678v33.763C407.196,385.446,451.29,398.081,505.697,398.081z M505.697,454.35
			c54.407,0,98.502-12.616,98.502-28.122v-33.781c-28.148,18.9-89.659,19.701-98.502,19.701c-8.842,0-70.33-0.802-98.501-19.701
			v33.781C407.196,441.733,451.29,454.35,505.697,454.35z M505.697,510.618c54.407,0,98.502-12.615,98.502-28.122v-33.744
			c-28.148,18.899-89.659,19.665-98.502,19.665c-8.842,0-70.33-0.766-98.501-19.665v33.744
			C407.196,498.003,451.29,510.618,505.697,510.618z"/>
		<polygon style="fill:#394145;" points="685.92,487.934 619.289,432.046 624.091,426.338 690.709,482.233 		"/>
		<polygon style="fill:#394145;" points="392.719,432.046 387.917,426.338 321.323,482.233 326.088,487.934 		"/>
		<rect x="451.352" y="658.468" style="fill:#394145;" width="108.704" height="9.309"/>
	</g>
</g>
<g id="Layer_1">
</g>
</svg>
