<?xml version="1.0" encoding="iso-8859-1"?>
<!-- Generator: Adobe Illustrator 17.1.0, SVG Export Plug-In . SVG Version: 6.00 Build 0)  -->
<!DOCTYPE svg PUBLIC "-//W3C//DTD SVG 1.1//EN" "http://www.w3.org/Graphics/SVG/1.1/DTD/svg11.dtd">
<svg version="1.1" xmlns="http://www.w3.org/2000/svg" xmlns:xlink="http://www.w3.org/1999/xlink" x="0px" y="0px"
	 viewBox="0 0 1010 1010" style="enable-background:new 0 0 1010 1010;" xml:space="preserve">
<g id="data-lock">
	<path id="label_13_" style="fill:#0099CC;" d="M504.997,0C830.889,0,1010,230.093,1010,505.009
		C1010,783.918,783.903,1010,504.997,1010C226.103,1010,0,783.918,0,505.009C0,226.112,226.103,0,504.997,0z"/>
	<g id="icon_14_">
		<path style="fill:#FFFFFF;" d="M465.285,384.366c116.605,0,211.125-27.045,211.125-60.336c0-33.285-94.52-60.329-211.125-60.329
			c-116.628,0-211.131,27.044-211.131,60.329C254.154,357.321,348.656,384.366,465.285,384.366z"/>
		<path style="fill:#FFFFFF;" d="M465.285,504.999c18.017,0,35.417-0.697,52.117-1.929c0.563-37.712,17.105-71.53,43.144-95.164
			c-44.975,6.107-85.401,6.609-95.261,6.609c-18.979,0-150.838-1.623-211.131-42.158v72.338
			C254.154,477.956,348.656,504.999,465.285,504.999z"/>
		<path style="fill:#FFFFFF;" d="M465.285,625.665c41.884,0,80.815-3.528,113.641-9.548c-29.409-18.531-50.996-48.296-58.596-83.289
			c-27.088,2.101-48.295,2.352-55.044,2.352c-18.979,0-150.838-1.653-211.131-42.19v72.339
			C254.154,598.62,348.656,625.665,465.285,625.665z"/>
		<path style="fill:#FFFFFF;" d="M629.15,634.734c-64.782,19.989-148.984,21.074-163.865,21.074
			c-18.979,0-150.838-1.642-211.131-42.154v72.309c0,33.291,94.503,60.335,211.131,60.335c116.605,0,211.125-27.044,211.125-60.335
			v-52.631c-8.946,1.935-18.225,3.025-27.76,3.025C642.016,636.358,635.532,635.684,629.15,634.734z"/>
		<path style="fill:#394145;" d="M659.752,511.436c0-1.311-0.325-2.571-0.858-3.723c-0.655-1.427-1.763-2.604-3.062-3.607
			c-0.159-0.142-0.294-0.282-0.465-0.367c-1.886-1.317-4.226-2.156-6.828-2.156c-2.579,0-4.9,0.839-6.792,2.156
			c-1.44,0.98-2.67,2.21-3.443,3.723c-0.6,1.232-0.98,2.549-0.98,3.975c0,0.031,0.013,0.031,0.013,0.061
			c0.03,2.517,1.219,4.728,3.068,6.407c0.784,0.759,1.648,1.432,2.646,1.935l-4.269,20.35l-1.457,6.915h22.427l-1.434-6.915
			l-4.268-20.35c1.054-0.533,1.96-1.232,2.762-2.016C658.601,516.116,659.752,513.93,659.752,511.436z"/>
		<path style="fill:#394145;" d="M676.41,401.581c-8.861-2.376-18.145-3.778-27.76-3.778c-57.813,0-104.804,45.802-107.002,103.082
			c-0.055,1.372-0.208,2.744-0.208,4.115c0,8.82,1.176,17.332,3.178,25.507c8.929,36.507,36.42,65.707,71.99,76.822
			c10.123,3.191,20.883,4.9,32.042,4.9c59.196,0,107.197-47.989,107.197-107.229C755.846,455.418,722.128,413.817,676.41,401.581z
			 M701.574,564.325h-13.566H676.41h-14.728h-26.077h-26.529H597.99v-42.22v-30.541v-11.955h4.128h5.309v-13.184
			c0-23.015,18.992-41.773,42.355-41.773c10.135,0,19.334,3.669,26.627,9.517c9.53,7.698,15.746,19.205,15.746,32.256v13.184h5.304
			h4.115V564.325z"/>
		<path style="fill:#394145;" d="M649.782,443.494c-12.751,0-23.542,10.498-23.542,22.93v13.184h5.304h5.26h0.423h23.419h7.392
			h5.303v-13.184c0-3.112-0.674-6.107-1.905-8.85C667.812,449.398,659.361,443.494,649.782,443.494z"/>
	</g>
</g>
<g id="Layer_1">
</g>
</svg>
