<?xml version="1.0" encoding="iso-8859-1"?>
<!-- Generator: Adobe Illustrator 17.1.0, SVG Export Plug-In . SVG Version: 6.00 Build 0)  -->
<!DOCTYPE svg PUBLIC "-//W3C//DTD SVG 1.1//EN" "http://www.w3.org/Graphics/SVG/1.1/DTD/svg11.dtd">
<svg version="1.1" xmlns="http://www.w3.org/2000/svg" xmlns:xlink="http://www.w3.org/1999/xlink" x="0px" y="0px"
	 viewBox="0 0 1010 1010" style="enable-background:new 0 0 1010 1010;" xml:space="preserve">
<g id="data-servers">
	<path id="label_10_" style="fill:#394145;" d="M504.994,0C783.904,0,1010,226.095,1010,504.994
		C1010,783.906,783.904,1010,504.994,1010C226.096,1010,0,783.906,0,504.994C0,226.095,226.096,0,504.994,0z"/>
	<g id="icon_10_">
		<g>
			<g>
				<rect x="470.178" y="641.079" style="fill:#FFFFFF;" width="14.919" height="11.858"/>
				<rect x="500.027" y="641.079" style="fill:#FFFFFF;" width="14.943" height="11.858"/>
				<rect x="352.336" y="520.213" style="fill:#FFFFFF;" width="11.856" height="14.907"/>
				<rect x="352.336" y="490.346" style="fill:#FFFFFF;" width="11.856" height="14.943"/>
			</g>
			<g>
				<path style="fill:#FFFFFF;" d="M472.578,296.007c0-16.187-13.154-29.311-29.359-29.311H268.693
					c-16.23,0-29.372,13.124-29.372,29.311c0,16.222,13.142,29.37,29.372,29.37h174.526
					C459.424,325.378,472.578,312.23,472.578,296.007z M282.607,296.007c0,5.56-4.533,10.043-10.056,10.043
					c-5.536,0-10.056-4.483-10.056-10.043c0-5.525,4.52-10.038,10.056-10.038C278.075,285.97,282.607,290.483,282.607,296.007z"/>
				<path style="fill:#FFFFFF;" d="M472.578,366.79c0-16.217-13.154-29.34-29.359-29.34H268.693
					c-16.23,0-29.372,13.123-29.372,29.34c0,16.186,13.142,29.323,29.372,29.323h174.526
					C459.424,396.113,472.578,382.976,472.578,366.79z M282.607,366.79c0,5.524-4.533,10.019-10.056,10.019
					c-5.536,0-10.056-4.495-10.056-10.019c0-5.549,4.52-10.038,10.056-10.038C278.075,356.752,282.607,361.241,282.607,366.79z"/>
				<path style="fill:#FFFFFF;" d="M472.578,437.542c0-16.211-13.154-29.347-29.359-29.347H268.693
					c-16.23,0-29.372,13.136-29.372,29.347c0,16.192,13.142,29.348,29.372,29.348h174.526
					C459.424,466.89,472.578,453.735,472.578,437.542z M282.607,437.542c0,5.524-4.533,10.014-10.056,10.014
					c-5.536,0-10.056-4.49-10.056-10.014c0-5.555,4.52-10.044,10.056-10.044C278.075,427.499,282.607,431.987,282.607,437.542z"/>
			</g>
			<g>
				<path style="fill:#FFFFFF;" d="M770.679,572.434c0-16.186-13.118-29.335-29.346-29.335H566.805
					c-16.216,0-29.359,13.149-29.359,29.335c0,16.217,13.143,29.346,29.359,29.346h174.528
					C757.561,601.78,770.679,588.651,770.679,572.434z M580.719,572.434c0,5.549-4.495,10.044-10.044,10.044
					c-5.524,0-10.044-4.495-10.044-10.044c0-5.524,4.52-10.031,10.044-10.031C576.224,562.402,580.719,566.91,580.719,572.434z"/>
				<path style="fill:#FFFFFF;" d="M770.679,643.205c0-16.217-13.118-29.348-29.346-29.348H566.805
					c-16.216,0-29.359,13.131-29.359,29.348c0,16.198,13.143,29.353,29.359,29.353h174.528
					C757.561,672.558,770.679,659.403,770.679,643.205z M580.719,643.205c0,5.542-4.495,10.05-10.044,10.05
					c-5.524,0-10.044-4.508-10.044-10.05c0-5.549,4.52-10.038,10.044-10.038C576.224,633.167,580.719,637.656,580.719,643.205z"/>
				<path style="fill:#FFFFFF;" d="M770.679,713.957c0-16.211-13.118-29.359-29.346-29.359H566.805
					c-16.216,0-29.359,13.148-29.359,29.359c0,16.192,13.143,29.346,29.359,29.346h174.528
					C757.561,743.304,770.679,730.15,770.679,713.957z M580.719,713.957c0,5.549-4.495,10.044-10.044,10.044
					c-5.524,0-10.044-4.495-10.044-10.044s4.52-10.056,10.044-10.056C576.224,703.901,580.719,708.409,580.719,713.957z"/>
			</g>
		</g>
		<g>
			<polygon style="fill:#0099CC;" points="454.23,600.17 359.771,552.947 265.288,600.17 359.771,647.4 			"/>
			<polygon style="fill:#0099CC;" points="359.771,664.744 301.47,635.592 265.288,647.4 359.771,694.63 454.23,647.4 
				421.025,634.852 			"/>
			<polygon style="fill:#0099CC;" points="359.771,711.973 301.47,682.822 265.288,694.63 359.771,741.865 454.23,694.63 
				421.025,682.087 			"/>
		</g>
	</g>
</g>
<g id="Layer_1">
</g>
</svg>
