<?xml version="1.0" encoding="iso-8859-1"?>
<!-- Generator: Adobe Illustrator 17.1.0, SVG Export Plug-In . SVG Version: 6.00 Build 0)  -->
<!DOCTYPE svg PUBLIC "-//W3C//DTD SVG 1.1//EN" "http://www.w3.org/Graphics/SVG/1.1/DTD/svg11.dtd">
<svg version="1.1" xmlns="http://www.w3.org/2000/svg" xmlns:xlink="http://www.w3.org/1999/xlink" x="0px" y="0px"
	 viewBox="0 0 1010 1010" style="enable-background:new 0 0 1010 1010;" xml:space="preserve">
<g id="data-usage">
	<path id="label_15_" style="fill:#FC6220;" d="M504.994,0C783.893,0,1010,226.12,1010,505.018
		C1010,783.929,783.893,1010,504.994,1010C226.095,1010,0,783.929,0,505.018C0,226.12,226.095,0,504.994,0z"/>
	<g id="icon_16_">
		<path style="fill:#FFFFFF;" d="M707.22,638.911H302.718c-26.774,0-48.564,22.391-48.564,49.997
			c0,27.584,21.79,49.999,48.564,49.999H707.22c26.812,0,48.627-22.414,48.627-49.999
			C755.846,661.302,734.032,638.911,707.22,638.911z M574.068,699.247H312.7c-5.891,0-10.717-4.949-10.717-10.951
			c0-6.099,4.826-10.975,10.717-10.975h261.368c5.88,0,10.669,4.875,10.669,10.975C584.737,694.298,579.948,699.247,574.068,699.247
			z M638.849,704.697c-9.099,0-16.4-7.361-16.4-16.4c0-9.137,7.301-16.462,16.4-16.462c9.101,0,16.462,7.325,16.462,16.462
			C655.311,697.336,647.95,704.697,638.849,704.697z M715.966,702.872h-29.212v-29.2h29.212V702.872z"/>
		<path style="fill:#FFFFFF;" d="M698.573,406.755c-11.171-39.758-41.952-56.269-72.658-56.269H462.424v73.184h36.905
			c0,0,11.807-0.282,6.443,10.741L445.62,514.37c0,0-9.296,13.008-19.622-0.44l-58.057-80.741c-2.841-9.676,6.21-9.517,6.21-9.517
			h37.958v-73.184h-23.957c-36.696,0-67.623,18.569-76.957,56.269l-56.366,228.359c12.713-11.784,29.42-19.157,47.89-19.157h278.822
			v-71.946h-36.892c0,0-11.832,0.282-6.467-10.754l60.163-79.957c0,0,9.298-13.008,19.622,0.44l58.057,80.741
			c2.842,9.653-6.21,9.53-6.21,9.53h-37.958v71.946h75.364c18.397,0,35.006,7.276,47.683,18.936L698.573,406.755z"/>
		<rect x="408.409" y="310.141" style="fill:#FFFFFF;" width="54.518" height="22.954"/>
		<rect x="408.409" y="271.093" style="fill:#FFFFFF;" width="54.518" height="22.954"/>
	</g>
</g>
<g id="Layer_1">
</g>
</svg>
