<?xml version="1.0" encoding="iso-8859-1"?>
<!-- Generator: Adobe Illustrator 17.1.0, SVG Export Plug-In . SVG Version: 6.00 Build 0)  -->
<!DOCTYPE svg PUBLIC "-//W3C//DTD SVG 1.1//EN" "http://www.w3.org/Graphics/SVG/1.1/DTD/svg11.dtd">
<svg version="1.1" xmlns="http://www.w3.org/2000/svg" xmlns:xlink="http://www.w3.org/1999/xlink" x="0px" y="0px"
	 viewBox="0 0 1010 1010.006" style="enable-background:new 0 0 1010 1010.006;" xml:space="preserve">
<g id="data-lock-2">
	<path id="label_6_" style="fill:#0099CC;" d="M505,0c278.902,0,505,226.105,505,505c0,278.908-226.098,505.006-505,505.006
		S0,783.908,0,505C0,226.105,226.098,0,505,0z"/>
	<g id="icon_6_">
		<path style="fill:#FFFFFF;" d="M684.634,623.188H300.318c-25.441,0-46.165,21.312-46.165,47.572
			c0,26.163,20.724,47.475,46.165,47.475h384.316c25.477,0,46.213-21.312,46.213-47.475
			C730.847,644.5,710.111,623.188,684.634,623.188z M558.096,680.572H309.798c-5.609,0-10.191-4.703-10.191-10.436
			c0-5.781,4.582-10.41,10.191-10.41h248.299c5.61,0,10.154,4.629,10.154,10.41C568.25,675.868,563.706,680.572,558.096,680.572z
			 M619.681,685.691c-8.635,0-15.58-6.945-15.58-15.556c0-8.647,6.945-15.64,15.58-15.64s15.629,6.994,15.629,15.64
			C635.31,678.747,628.316,685.691,619.681,685.691z M692.951,684.013h-27.755v-27.755h27.755V684.013z"/>
		<path style="fill:#FFFFFF;" d="M684.634,601.386c17.491,0,33.266,6.945,45.307,18.053l-27.596-111.766
			c-15.016,6.504-31.552,10.142-48.944,10.142c-68.15,0-123.61-55.448-123.61-123.622c0-15.886,3.136-31.05,8.623-45.001H381.487
			c-34.859,0-64.267,17.662-73.122,53.464l-53.587,216.967c12.101-11.195,27.963-18.238,45.54-18.238H684.634z"/>
		<path style="fill:#394145;" d="M664.033,400.341c0-1.262-0.306-2.449-0.808-3.528c-1.445-3.11-4.752-5.303-8.684-5.719
			c-0.404-0.036-0.796-0.159-1.213-0.159c-0.441,0-0.833,0.123-1.249,0.159c-3.809,0.391-7.006,2.486-8.537,5.438
			c-0.588,1.188-0.931,2.45-0.931,3.809c0,2.45,1.164,4.593,2.94,6.21c0.747,0.699,1.568,1.336,2.523,1.825l-4.483,21.312
			l-0.98,4.752h21.422l-0.992-4.752l-4.471-21.312c0.992-0.502,1.874-1.188,2.646-1.923
			C662.93,404.8,664.033,402.717,664.033,400.341z"/>
		<path style="fill:#394145;" d="M653.401,496.637c15.678,0,30.498-3.613,43.763-9.921c34.651-16.413,58.682-51.627,58.682-92.523
			c0-56.551-45.858-102.422-102.445-102.422c-40.383,0-75.217,23.444-91.899,57.421c-6.675,13.607-10.509,28.832-10.509,45.001
			C550.993,450.804,596.838,496.637,653.401,496.637z M703.987,450.902h-14.87h-0.796h-22.439h-24.925h-23.443H605.02v-80.998h5.806
			h3.184v-12.566c0-2.621,0.282-5.169,0.784-7.631c3.65-18.336,20.026-32.275,39.709-32.275c22.341,0,40.493,17.908,40.493,39.906
			v12.566h3.209h5.781V450.902z"/>
		<path style="fill:#394145;" d="M654.503,335.425c-10.864,0-20.185,7.986-22.096,18.115c-0.221,1.238-0.404,2.511-0.404,3.798
			v12.566h3.197h15.641h4.838h2.56h15.568h3.197v-12.566C677.004,345.456,666.69,335.425,654.503,335.425z"/>
	</g>
</g>
<g id="Layer_1">
</g>
</svg>
