<?xml version="1.0" encoding="iso-8859-1"?>
<!-- Generator: Adobe Illustrator 17.1.0, SVG Export Plug-In . SVG Version: 6.00 Build 0)  -->
<!DOCTYPE svg PUBLIC "-//W3C//DTD SVG 1.1//EN" "http://www.w3.org/Graphics/SVG/1.1/DTD/svg11.dtd">
<svg version="1.1" xmlns="http://www.w3.org/2000/svg" xmlns:xlink="http://www.w3.org/1999/xlink" x="0px" y="0px"
	 viewBox="0 0 1010 1010" style="enable-background:new 0 0 1010 1010;" xml:space="preserve">
<g id="firewall">
	<path id="label_14_" style="fill:#394145;" d="M505.003,0C783.898,0,1010,226.089,1010,505.006
		C1010,783.893,783.898,1010,505.003,1010C226.09,1010,0,783.893,0,505.006C0,226.089,226.09,0,505.003,0z"/>
	<g id="icon_15_">
		<g>
			<path style="fill:#FFFFFF;" d="M584.627,341.507H457.514c-7.68,0-13.951,6.271-13.951,13.945v72.804
				c0,7.68,6.271,13.951,13.951,13.951H491.3C513.544,408.78,544.991,374.724,584.627,341.507z"/>
			<path style="fill:#FFFFFF;" d="M272.3,442.206h134.401c7.673,0,13.951-6.271,13.951-13.951v-72.804
				c0-7.673-6.277-13.945-13.951-13.945H272.3c-7.673,0-13.951,6.271-13.951,13.945v72.804
				C258.349,435.935,264.627,442.206,272.3,442.206z"/>
			<path style="fill:#FFFFFF;" d="M478.164,463.684H268.13c-7.686,0-13.976,6.271-13.976,13.957v72.816
				c0,7.668,6.29,13.957,13.976,13.957h184.974c-0.215-4.397-0.416-8.818-0.416-13.443
				C452.687,523.437,461.495,493.961,478.164,463.684z"/>
			<path style="fill:#FFFFFF;" d="M406.701,585.634H272.3c-7.673,0-13.951,6.271-13.951,13.938v72.804
				c0,7.692,6.277,13.963,13.951,13.963h134.401c7.673,0,13.951-6.271,13.951-13.963v-72.804
				C420.652,591.905,414.374,585.634,406.701,585.634z"/>
			<path style="fill:#FFFFFF;" d="M454.99,585.873c-6.479,1.2-11.427,6.883-11.427,13.699v72.804
				c0,7.692,6.271,13.963,13.951,13.963h62.344c-10.46-5.732-19.903-12.493-27.987-20.602
				C471.9,645.755,459.731,619.428,454.99,585.873z"/>
		</g>
		<path style="fill:#FC6220;" d="M735.514,565.448c-0.355-4.256-1.42-8.695-2.878-13.203
			c-0.612-76.803,23.211-108.569,23.211-108.569s-35.845,0.857-77.274,23.657c-0.882-1.243-1.74-2.492-2.621-3.724
			c1.274-31.129,7.276-62.234,16.07-85.23c-5.175,2.842-27.124,12.12-49.251,28.711c-11.366-27.173-14.906-55.265-1.372-83.43
			c-105.256,75.45-167.985,159.634-167.985,227.342c-0.061,52.729,13.118,135.338,140.636,135.338
			c75.088,0,113.383-28.76,120.474-84.58l1.678,1.678c-0.33-2.517-0.459-4.814-0.746-7.263
			C736.249,586.626,736.427,576.491,735.514,565.448z M672.834,625.374c-8.225,14.306-12.328,18.531-65.192,20.031
			c-52.863,1.495-62.663-9.994-72.424-27.968c-27.804-51.291,7.312-83.638,5.292-79.902c-1.984,3.735-12.665,36.701,38.258,63.679
			c-25.029-31.171,20.449-68.426,37.315-85.653c0,44.192,17.932,85.653,17.932,85.653s29.004-17.037,49.923-78.42
			C694.917,570.502,696.84,583.601,672.834,625.374z"/>
	</g>
</g>
<g id="Layer_1">
</g>
</svg>
