<?xml version="1.0" encoding="iso-8859-1"?>
<!-- Generator: Adobe Illustrator 17.1.0, SVG Export Plug-In . SVG Version: 6.00 Build 0)  -->
<!DOCTYPE svg PUBLIC "-//W3C//DTD SVG 1.1//EN" "http://www.w3.org/Graphics/SVG/1.1/DTD/svg11.dtd">
<svg version="1.1" xmlns="http://www.w3.org/2000/svg" xmlns:xlink="http://www.w3.org/1999/xlink" x="0px" y="0px"
	 viewBox="0 0 1010 1010" style="enable-background:new 0 0 1010 1010;" xml:space="preserve">
<g id="globe">
	<path id="label_1_" style="fill:#FC6220;" d="M504.997,0C783.903,0,1010,226.103,1010,504.997
		C1010,783.903,783.903,1010,504.997,1010C226.103,1010,0,783.903,0,504.997C0,226.103,226.103,0,504.997,0z"/>
	<g id="icon_1_">
		<g>
			<rect x="608.397" y="725.37" style="fill:#FFFFFF;" width="147.454" height="13.675"/>
			<rect x="254.149" y="725.37" style="fill:#FFFFFF;" width="147.479" height="13.675"/>
			<polygon style="fill:#394145;" points="492.555,669.504 517.475,669.504 517.475,712.35 597.006,712.35 597.006,753.854 
				413.038,753.854 413.038,712.35 492.555,712.35 			"/>
		</g>
		<path style="fill:#FFFFFF;" d="M505.031,256.146c-109.968,0-199.083,89.139-199.083,199.069
			c0,109.944,89.115,199.083,199.083,199.083c109.918,0,199.003-89.139,199.003-199.083
			C704.034,345.285,614.949,256.146,505.031,256.146z M484.472,319.698h9.683V308.19h-6.664h-1.831v-29.648h12.102v-15.145
			l0.704-1.599c2.131-0.054,4.312-0.208,6.566-0.208c9.639,0,19.181,0.754,28.44,2.169v9.953h13.896v15.721v22.077h-10.582
			l-9.12,9.058l-22.047,22.145l-11.464,11.478l-9.683-9.689V319.698z M447.297,270.433l3.583,3.601l-6.382,6.339h-10.883v10.865
			h15.158h7.815v50.225h-17.522V305.14h-12.145v-17.558h-7.82v10.276l-7.563,7.588h-17.853l-4.899-4.911
			C406.21,287.373,425.954,277.115,447.297,270.433z M510.457,551.398h-16.303l-8.495,12.12v27.216l-24.822,18.172v32.655
			l-27.853-25.391v-66.577l-29.617-27.842v-33.861l-20.566-15.12h-18.164l-12.995-13.033v-17.847l-8.733-5.42l-2.498,6.639
			l4.262,2.419v15.164l-10.889-13.327l-5.45-21.208l-4.856-1.207v-36.997c9.737-26.066,24.809-49.473,44.052-68.856l60.599,0.601
			l-2.364,12.707l-18.177,1.195l1.825,6.032l4.232,4.869l-4.838,7.839l-14.533-1.776l8.506,11.508l14.478,10.246l4.844,11.489
			l6.027-1.789V352.34h16.371v3.669h16.951v20.522h-7.245v8.495h-7.276v5.443H457.2l-6.639,6.664l-2.707-2.713l-6.4,6.326v5.445
			l-5.719,5.781l-7.263,7.251l-8.476,8.47l-5.702,5.757v18.14h-7.949v-9.702h-25.979v10.944l25.416,24.204h50.807v4.831h18.188
			l19.954,25.392h15.727V551.398z M664.716,438.839v15.757h-25.992l-12.762-12.708v-8.439h-7.484v11.838l17.233,17.203h19.659
			v14.208l-17.883,17.853v26.046v24.167h-13.56v25.697l-10.588,10.571h-24.932v-22.863l-13.443-13.405v-42.11l-16.7-16.702h-34.976
			l-13.76-13.773v-34.853l11.825-11.735h19.948l12.702-12.72h6.663h8.519v6.663h46.533v-8.151h-11.741l6.921-6.969l6.675-6.664
			h11.434l-7.219-7.184h-10.817l-11.427,11.41v8.948l-12.211-12.279h-7.595l11.183,11.189h-9.076l-7.263-7.27v-4.844l-10.883-10.877
			l-8.164,8.164l-6.969,6.969v12.683h-13.915v-5.989v-19.402h5.132v-4.538l3.306-3.331l-5.983-6.044l-7.913,7.863l-6.35-6.382
			l3.38-3.301v-6.019v-12.139h12.678v7.264l10.833,10.894h7.937v-8.5h24.173v-8.451h9.688v-12.083h-10.246v-11.508h-5.456v23.016
			l-4.293,4.201l-8.439-3.625l-14.533-3.626l1.169-13.89l14.595-10.889l8.439-14.533l15.733-3.625l-1.776,7.251l10.252,1.795
			l-0.569,7.238l11.453-1.207l5.481-3.614l1.164-6.014h24.252c36.825,35.233,59.84,84.828,59.84,139.744
			c0,2.965-0.08,5.88-0.227,8.844l-42.117-42.147l-4.232,4.244L664.716,438.839z"/>
	</g>
</g>
<g id="Layer_1">
</g>
</svg>
