<?xml version="1.0" encoding="iso-8859-1"?>
<!-- Generator: Adobe Illustrator 17.1.0, SVG Export Plug-In . SVG Version: 6.00 Build 0)  -->
<!DOCTYPE svg PUBLIC "-//W3C//DTD SVG 1.1//EN" "http://www.w3.org/Graphics/SVG/1.1/DTD/svg11.dtd">
<svg version="1.1" xmlns="http://www.w3.org/2000/svg" xmlns:xlink="http://www.w3.org/1999/xlink" x="0px" y="0px"
	 viewBox="0 0 1010 1009.994" style="enable-background:new 0 0 1010 1009.994;" xml:space="preserve">
<g id="globe-network">
	<path id="label_3_" style="fill:#394145;" d="M505.006,0C783.904,0,1010,226.102,1010,504.994c0,278.904-226.096,505-504.994,505
		C226.107,1009.994,0,783.898,0,504.994C0,226.102,226.107,0,505.006,0z"/>
	<g id="icon_3_">
		<path style="fill:#FFFFFF;" d="M720.257,373.827c-41.277-70.184-118.615-117.286-196.613-121.511
			c-103.426-7.918-202.787,51.083-246.539,146.21c-31.454,63.901-30.254,153.964,1.568,217.007
			c40.372,87.271,135.199,146.59,230.567,142.671c96.812-0.147,188.405-65.162,225.935-152.984
			C768.124,534.558,760.628,439.314,720.257,373.827z M487.266,266.917c-37.848,27.902-71.924,67.838-91.251,107.621
			c-20.087-10.044-40.444-24.123-55.951-40.561C380.802,294.622,431.094,271.13,487.266,266.917z M339.451,675.966
			c16.022-17.355,35.889-29.971,54.824-40.664c19.647,39.721,51.321,79.651,89.243,107.639
			C428.082,738.226,378.696,713.938,339.451,675.966z M500.494,736.952c-39.514-26.861-72.34-65.749-92.673-108.007
			c28.49-13.388,59.209-20.136,93.015-20.993L500.494,736.952z M475.14,514.336l26.139,0.123l-0.147,78.354
			c-1.151,0.342-2.866,0.453-4.361,0.551c-33.194,1.237-65.799,8.99-95.171,21.803c-9.7-23.676-16.486-49.962-19.598-75.758
			c-4.458,1.911-9.333,2.891-14.404,3.136c3.259,27.854,10.607,54.237,20.994,79.224c-22.121,11.243-41.351,26.603-59.626,43.151
			c-37.725-42.221-58.266-92.953-60.63-150.369l56.932-0.104c-1.666-4.568-2.719-9.407-2.719-14.514l-53.783,0.085l-0.355-0.355
			l0.661-18.104c1.03-0.795-0.221-2.278,0.576-3.331c6.407-49.913,25.195-95.771,59.957-133.649
			c18.226,17.497,38.337,32.587,60.067,43.451c-9.358,21.35-15.875,45.479-19.844,69.364c4.998,0.514,9.702,1.8,14.061,3.883
			c3.65-23.2,9.774-45.4,18.911-66.534c30.426,12.97,64.403,21.593,98.674,21.863l-0.368,83.302l-92.77,0.025
			c0,5.107-1.052,9.946-2.694,14.514L475.14,514.336z M501.204,401.699c-34.932-0.724-62.638-8.047-92.035-20.437
			c20.137-41.284,53.845-79.622,92.575-106.611L501.204,401.699z M516.026,416.097c21.852-0.778,43.213-5.003,63.643-11.52
			c-2.94-3.956-5.12-8.426-6.565-13.282c-17.957,5.64-36.722,9.309-57.005,9.915l0.197-123.955
			c26.358,17.405,51.271,42.355,70.428,69.105c3.797-3.172,8.109-5.707,12.836-7.41c-19.426-27.522-44.853-53.109-71.286-71.843
			c52.889,5.628,101.835,27.143,142.107,66.394c-6.908,7.049-14.478,13.607-22.415,19.677c3.038,3.962,5.341,8.445,6.883,13.333
			c8.918-6.669,17.516-13.97,25.698-21.962c38.974,42.907,59.356,95.698,61.168,155.066l-89.707,0.159
			c-0.956-30.132-6.174-57.96-14.675-84.674c-4.09,2.67-8.647,4.618-13.546,5.744c8.083,24.804,12.738,51.015,13.424,78.856
			l-120.746,0.282l-0.219-0.245l-0.221-82.476V416.097z M679.911,664.539c-9.53-9.125-19.598-17.11-29.96-24.399
			c-2.694,4.164-6.173,7.741-10.117,10.741c10.361,7.227,20.284,15.446,29.812,24.62c-37.872,36.954-85.053,60.116-136.644,66.534
			c29.665-22.341,56.049-51.334,75.402-82.739c0.049-0.049,0.074-0.098,0.098-0.134c-5.144-0.674-9.945-2.241-14.355-4.569
			c-20.259,31.859-48.26,60.728-78.979,81.857L515.731,608c18.716,1.126,37.457,4.569,55.51,9.885c0-0.38-0.098-0.711-0.098-1.079
			c0-4.789,0.956-9.333,2.426-13.644c-18.422-5.206-37.653-8.697-57.764-9.702l0.342-78.941l117.66-0.269l3.356,0.244
			c-0.246,21.484-3.601,42.148-9.016,62.003c4.9,1.678,9.285,4.226,13.18,7.459c6.443-23.088,10.289-47.071,10.583-69.633
			l86.081-0.183c1.03,0.576,2.377,0.233,3.626,0.355C739.439,570.52,718.003,621.522,679.911,664.539z"/>
		<g>
			<path style="fill:#0099CC;" d="M588.929,397.742c5.719,7.711,14.796,12.776,25.109,12.776c2.475,0,4.826-0.361,7.129-0.888
				c3.576-0.833,6.908-2.248,9.896-4.202c8.612-5.598,14.331-15.255,14.331-26.267c0-3.252-0.637-6.307-1.53-9.254
				c-1.14-3.565-2.806-6.841-5.035-9.738c-5.732-7.453-14.65-12.358-24.791-12.358c-3.723,0-7.251,0.759-10.582,1.965
				c-3.454,1.243-6.602,3.093-9.383,5.413c-6.883,5.739-11.391,14.301-11.391,23.971c0,3.099,0.601,6.038,1.446,8.868
				C585.18,391.575,586.773,394.846,588.929,397.742z"/>
			<path style="fill:#FC6220;" d="M624.351,587.349c-3.246-1.151-6.688-1.899-10.314-1.899c-13.792,0-25.378,8.997-29.568,21.386
				c-1.077,3.148-1.789,6.467-1.789,9.97c0,0.27,0.087,0.509,0.087,0.784c0.306,11.673,7.018,21.675,16.743,26.831
				c3.21,1.697,6.737,2.848,10.485,3.337c1.347,0.172,2.645,0.393,4.041,0.393c7.104,0,13.572-2.445,18.851-6.443
				c2.877-2.192,5.426-4.808,7.398-7.852c3.21-4.924,5.107-10.76,5.107-17.05c0-9.688-4.483-18.249-11.415-24.006
				C631.137,590.436,627.927,588.574,624.351,587.349z"/>
			<path style="fill:#FC6220;" d="M378.915,471.669c-3.172-1.525-6.614-2.456-10.264-2.836c-1.079-0.11-2.107-0.319-3.21-0.319
				c-17.282,0-31.356,14.062-31.356,31.344c0,0.019,0.025,0.043,0.025,0.055c0,3.73,0.759,7.269,1.984,10.601
				c4.385,12.041,15.825,20.694,29.347,20.694c0.539,0,1.054-0.115,1.593-0.159c3.699-0.177,7.251-0.893,10.509-2.29
				c8.035-3.368,14.281-10.025,17.27-18.244c1.2-3.331,1.984-6.871,1.984-10.601c0-0.013,0.025-0.036,0.025-0.055
				C396.823,487.408,389.45,476.733,378.915,471.669z"/>
		</g>
	</g>
</g>
<g id="Layer_1">
</g>
</svg>
