<?xml version="1.0" encoding="iso-8859-1"?>
<!-- Generator: Adobe Illustrator 17.1.0, SVG Export Plug-In . SVG Version: 6.00 Build 0)  -->
<!DOCTYPE svg PUBLIC "-//W3C//DTD SVG 1.1//EN" "http://www.w3.org/Graphics/SVG/1.1/DTD/svg11.dtd">
<svg version="1.1" xmlns="http://www.w3.org/2000/svg" xmlns:xlink="http://www.w3.org/1999/xlink" x="0px" y="0px"
	 viewBox="0 0 1010 1009.995" style="enable-background:new 0 0 1010 1009.995;" xml:space="preserve">
<g id="globe-www">
	<path id="label_2_" style="fill:#0099CC;" d="M504.994,0C783.893,0,1010,226.102,1010,504.994
		c0,278.905-226.107,505.001-505.006,505.001C226.095,1009.995,0,783.899,0,504.994C0,226.102,226.095,0,504.994,0z"/>
	<g id="icon_2_">
		<g id="globe-www_1_">
			<path style="fill:#FFFFFF;" d="M416.578,478.847l4.017-14.331l3.992,14.331H416.578z M588.007,399.831h-7.655l1.838,1.85h7.667
				L588.007,399.831z M575.159,401.681v-2.793l-10.975-10.992l-8.219,8.249l-5.499,5.536h21.336H575.159z M615.763,401.681
				l2.744-2.732h11.525l-7.276-7.287h-10.913l-9.995,10.019h5.12H615.763z M321.97,401.681h-9.787
				c23.995-83.995,101.136-145.537,192.853-145.537c91.655,0,168.797,61.542,192.779,145.537h-5.781
				c-9.774-33.047-27.927-62.517-52.167-85.728h-24.46l-1.188,6.106l-5.512,3.645l-11.563,1.212l0.588-7.324l-10.363-1.813
				l1.838-7.325l-15.899,3.675l-8.5,14.65l-14.722,11.005l-1.128,13.976l14.613,3.662l8.549,3.686l4.274-4.274v-23.18h5.5v11.599
				h10.326v12.169h-9.714v8.525h-24.399v8.568h-8.022l-10.889-10.975v-7.331h-12.8v12.23v6.076l-3.405,3.331l6.407,6.424
				l7.973-7.937l6.039,6.087l-3.356,3.381v4.587h-5.169v11.293h-61.083l-2.046,8.653l-1.863-8.653h-28.722l6.186-6.125l2.768,2.738
				l6.675-6.694h-10.35v-5.506h7.325v-8.519h7.325v-20.743h-17.087v-3.693h-16.512v29.916l-6.063,1.819l-4.923-11.599
				l-14.588-10.325l-8.55-11.587l14.626,1.776l4.912-7.888l-4.3-4.93l-1.825-6.106l18.336-1.176l2.376-12.836l-61.094-0.563
				c-19.402,19.517-34.627,43.151-44.438,69.43V401.681z M484.311,345.253l9.751,9.762l11.587-11.593l22.194-22.287l9.211-9.162
				h10.669v-22.262v-15.855h-14.036v-10.05c-9.345-1.402-18.924-2.156-28.65-2.156c-2.279,0-4.471,0.135-6.626,0.214l-0.699,1.617
				v15.274H485.5v29.862h1.825h6.737v11.587h-9.751V345.253z M387.818,300.913l4.973,4.967h17.981l7.606-7.643v-10.338h7.901v17.65
				h12.249v36.618h17.674v-50.648h-7.875H433.04v-10.926h10.975l6.429-6.418l-3.612-3.607
				C425.299,277.279,405.395,287.654,387.818,300.913z M673.343,512.818l-4.727,19.304H638.57v15.022H624.9v25.943l-10.68,10.637
				h-25.11v-23.045l-13.558-13.535v-33.511l-5.194,18.489h-59.81v21.729h-16.486l-8.562,12.23v27.412l-25.023,18.306v32.937
				l-28.063-25.569v-67.176l-28.795-26.996l-1.997,7.129h-61.083l-4.68-19.292l-4.716,19.292H319.03
				c29.788,73.522,101.761,125.455,186.006,125.455c84.196,0,156.156-51.933,185.92-125.455h-12.934L673.343,512.818z"/>
			<g>
				<path style="fill:#394145;" d="M413.625,433.65l4.74-16.921h-13.546h-2.695h-17.883l-9.063,38.528
					c-1.017,4.066-1.96,9.462-2.793,16.155c-0.857,6.7-1.457,12.298-1.812,16.781h-0.38c-0.061-0.036-0.123-0.085-0.196-0.128
					c-0.722-7.257-2.462-17.363-5.218-30.34l-8.697-40.995h-39.11l-1.506,6.443l-7.998,34.032
					c-3.136,15.225-4.801,25.563-4.972,30.989h-0.552c-0.416-8.732-1.959-19.713-4.618-32.935l-8.328-38.528H254.15l27.975,100.34
					h37.199l10.411-42.594c0.796-3.282,2.131-10.142,4.03-20.511c0.601-3.251,1.237-6.816,1.948-10.76h0.551l1.801,11.606
					l1.077,5.678l1.642,8.757l11.587,47.824h37.848l3.943-14.068l17.405-62.051L413.625,433.65z"/>
				<path style="fill:#394145;" d="M580.315,440.949l6.798-24.221h-13.558h-0.123h-20.454l-9.065,38.528
					c-1.017,4.066-1.96,9.462-2.793,16.155c-0.844,6.7-1.432,12.298-1.812,16.781h-0.539c-0.735-7.263-2.473-17.416-5.242-30.468
					l-8.697-40.995h-15.751H485.72l-9.516,40.475c-2.842,13.817-4.459,23.555-4.863,29.312c-0.038,0.587-0.087,1.181-0.098,1.677
					h-0.564c-0.011-0.385-0.061-0.844-0.085-1.249c-0.502-8.543-1.984-19.058-4.52-31.686l-8.328-38.528h-21.301h-13.558l6.76,24.24
					l1.557,5.579l0.527,1.905l17.588,63.08l1.555,5.536h6.222h2.413h28.552l10.423-42.594c0.907-3.847,2.598-12.561,5.047-26.102
					c0.294-1.653,0.6-3.355,0.943-5.169H505l0.795,5.169l1.03,6.437l2.694,14.435l11.587,47.824h37.848l19.61-69.872
					L580.315,440.949z"/>
				<path style="fill:#394145;" d="M721.725,416.729l-9.052,38.528c-1.041,4.066-1.984,9.462-2.806,16.155
					c-0.857,6.7-1.445,12.298-1.825,16.781h-0.538c-0.735-7.263-2.475-17.416-5.243-30.468l-8.427-39.733l-0.27-1.262h-39.096
					l-9.53,40.475c-2.781,13.511-4.385,23.162-4.839,28.949c-0.06,0.735-0.098,1.44-0.109,2.039h-0.576
					c-0.013-0.453-0.061-0.992-0.099-1.457c-0.502-8.494-1.972-18.948-4.507-31.478l-2.609-12.066l-5.721-26.462h-21.276h-13.571
					l6.749,24.24l8.536,30.566l8.427,30.273l4.263,15.262h37.186l10.435-42.594c0.686-2.904,1.837-8.659,3.405-17.118
					c0.748-4.09,1.593-8.763,2.573-14.153h0.527l1.335,8.506l0.49,3.099l2.694,14.435l11.612,47.824h37.823l28.16-100.34H721.725z"
					/>
			</g>
		</g>
		<g>
			<rect x="608.389" y="725.366" style="fill:#FFFFFF;" width="147.461" height="13.675"/>
			<rect x="254.15" y="725.366" style="fill:#FFFFFF;" width="147.472" height="13.675"/>
			<polygon style="fill:#394145;" points="492.555,669.501 517.469,669.501 517.469,712.346 596.998,712.346 596.998,753.85 
				413.037,753.85 413.037,712.346 492.555,712.346 			"/>
		</g>
	</g>
</g>
<g id="Layer_1">
</g>
</svg>
