<?xml version="1.0" encoding="iso-8859-1"?>
<!-- Generator: Adobe Illustrator 17.1.0, SVG Export Plug-In . SVG Version: 6.00 Build 0)  -->
<!DOCTYPE svg PUBLIC "-//W3C//DTD SVG 1.1//EN" "http://www.w3.org/Graphics/SVG/1.1/DTD/svg11.dtd">
<svg version="1.1" xmlns="http://www.w3.org/2000/svg" xmlns:xlink="http://www.w3.org/1999/xlink" x="0px" y="0px"
	 viewBox="0 0 1010 1009.994" style="enable-background:new 0 0 1010 1009.994;" xml:space="preserve">
<g id="internet-speed">
	<g id="internet-speed_1_">
		<path id="label_18_" style="fill:#394145;" d="M504.997,0C783.903,0,1010,226.096,1010,505.008
			c0,278.889-226.097,504.986-505.003,504.986C226.103,1009.994,0,783.897,0,505.008C0,226.096,226.103,0,504.997,0z"/>
		<g id="icon_19_">
			<path id="speed_2_" style="fill-rule:evenodd;clip-rule:evenodd;fill:#FFFFFF;" d="M504.975,755.843
				c-138.529,0-250.822-112.33-250.822-250.822c0-138.516,112.293-250.87,250.822-250.87c138.553,0,250.871,112.354,250.871,250.87
				C755.846,643.513,643.529,755.843,504.975,755.843z M505,291.801c-117.707,0-213.146,95.476-213.146,213.219
				c0,117.682,95.439,213.158,213.146,213.158c117.756,0,213.146-95.476,213.146-213.158
				C718.146,387.277,622.755,291.801,505,291.801z"/>
			<g>
				<path style="fill-rule:evenodd;clip-rule:evenodd;fill:#0099CC;" d="M659.011,505.743h-23.125c0-0.196,0.025-0.453,0.025-0.722
					c0-25.537-7.374-49.25-19.965-69.338c5.242-7.349,10.436-14.661,14.355-20.088c18.03,25.22,28.735,56.049,28.735,89.425
					C659.035,505.29,659.011,505.547,659.011,505.743z"/>
				<path style="fill-rule:evenodd;clip-rule:evenodd;fill:#FFFFFF;" d="M527.635,476.972l91.74-89.4
					c0,0-60.507,112.427-61.34,113.995C550.637,481.737,527.635,476.972,527.635,476.972z"/>
				<path style="fill-rule:evenodd;clip-rule:evenodd;fill:#FC6220;" d="M505,374.086c-69.694,0-126.525,54.505-130.543,123.231
					h28.122v16.915h-50.758v-8.489h-0.784c0-0.196-0.074-0.453-0.074-0.722c0-85.113,68.983-154.06,154.06-154.06
					c34.54,0,66.337,11.526,91.985,30.731l-17.221,15.935C558.599,382.807,532.828,374.086,505,374.086z"/>
				<path style="fill-rule:evenodd;clip-rule:evenodd;fill:#FFFFFF;" d="M507.278,490.262c22.782,0,41.253,18.482,41.253,41.215
					c0,22.831-18.471,41.289-41.253,41.289c-22.782,0-41.252-18.459-41.252-41.289C466.026,508.744,484.496,490.262,507.278,490.262
					z"/>
			</g>
		</g>
	</g>
</g>
<g id="Layer_1">
</g>
</svg>
