<?xml version="1.0" encoding="iso-8859-1"?>
<!-- Generator: Adobe Illustrator 17.1.0, SVG Export Plug-In . SVG Version: 6.00 Build 0)  -->
<!DOCTYPE svg PUBLIC "-//W3C//DTD SVG 1.1//EN" "http://www.w3.org/Graphics/SVG/1.1/DTD/svg11.dtd">
<svg version="1.1" xmlns="http://www.w3.org/2000/svg" xmlns:xlink="http://www.w3.org/1999/xlink" x="0px" y="0px"
	 viewBox="0 0 1010 1010" style="enable-background:new 0 0 1010 1010;" xml:space="preserve">
<g id="live-chat">
	<path id="label_27_" style="fill:#0099CC;" d="M504.994,0C783.904,0,1010,226.086,1010,505.013
		C1010,783.914,783.904,1010,504.994,1010C226.096,1010,0,783.914,0,505.013C0,226.086,226.096,0,504.994,0z"/>
	<g id="icon_36_">
		<path style="fill:#FBFBFB;" d="M800.871,372.375v102.102c0,47.769-39.084,86.889-86.889,86.889H634
			c-8.721,50.12,51.492,90.932,51.492,90.932c-49.679-16.683-87.93-38.313-117.327-60.727c0.539-1.005,1.054-2.008,1.506-2.964
			c19.769-26.604,31.466-58.694,31.466-93.137l0,0c0-47.744-22.304-90.785-57.555-121.43
			c-18.041-15.678-39.501-28.171-63.226-36.696c13.535-30.474,44.106-51.835,79.419-51.835h154.206
			C761.787,285.509,800.871,324.606,800.871,372.375z"/>
		<path style="fill:#394145;" d="M389.56,338.471c-99.652,0-180.431,70.306-180.431,157c0,86.67,80.779,156.951,180.431,156.951
			c5.768,0,11.464-0.245,17.074-0.711c-0.27,40.911-47.316,72.781-47.316,72.781c117.658-39.49,164.79-109.696,181.215-143.11
			c18.58-24.668,29.469-54.187,29.469-85.91C570.002,408.777,489.187,338.471,389.56,338.471z M292.136,518.448
			c-12.714,0-23.015-10.288-23.015-22.978c0-12.714,10.301-23.052,23.015-23.052s23.039,10.337,23.039,23.052
			C315.175,508.159,304.85,518.448,292.136,518.448z M389.56,518.448c-12.714,0-23.039-10.288-23.039-22.978
			c0-12.714,10.325-23.052,23.039-23.052c12.713,0,23.026,10.337,23.026,23.052C412.586,508.159,402.273,518.448,389.56,518.448z
			 M486.958,518.448c-12.714,0-23.015-10.288-23.015-22.978c0-12.714,10.301-23.052,23.015-23.052
			c12.714,0,23.039,10.337,23.039,23.052C509.997,508.159,499.673,518.448,486.958,518.448z"/>
	</g>
</g>
<g id="Layer_1">
</g>
</svg>
