<?xml version="1.0" encoding="iso-8859-1"?>
<!-- Generator: Adobe Illustrator 17.1.0, SVG Export Plug-In . SVG Version: 6.00 Build 0)  -->
<!DOCTYPE svg PUBLIC "-//W3C//DTD SVG 1.1//EN" "http://www.w3.org/Graphics/SVG/1.1/DTD/svg11.dtd">
<svg version="1.1" xmlns="http://www.w3.org/2000/svg" xmlns:xlink="http://www.w3.org/1999/xlink" x="0px" y="0px"
	 viewBox="0 0 1010 1010.006" style="enable-background:new 0 0 1010 1010.006;" xml:space="preserve">
<g id="rack-server-magnifier">
	<path id="label_34_" style="fill:#0099CC;" d="M504.997,0C783.903,0,1010,226.108,1010,504.984
		c0,278.925-226.097,505.022-505.003,505.022C226.103,1010.006,0,783.909,0,504.984C0,226.108,226.103,0,504.997,0z"/>
	<g id="icon_34_">
		<g>
			<g>
				<rect x="585.208" y="713.978" style="fill:#FFFFFF;" width="126.256" height="11.71"/>
				<rect x="281.963" y="713.978" style="fill:#FFFFFF;" width="126.269" height="11.71"/>
				<polygon style="fill:#394145;" points="486.07,666.161 507.37,666.161 507.37,702.832 575.483,702.832 575.483,738.377 
					417.981,738.377 417.981,702.832 486.07,702.832 				"/>
			</g>
			<g>
				<path style="fill:#FFFFFF;" d="M332.506,382.121h328.47c30.498,0,55.228-24.779,55.228-55.276
					c0-30.51-24.729-55.215-55.228-55.215h-328.47c-30.542,0-55.284,24.705-55.284,55.215
					C277.222,357.342,301.965,382.121,332.506,382.121z M339.726,307.946c10.448,0,18.924,8.475,18.924,18.899
					c0,10.448-8.476,18.875-18.924,18.875c-10.405,0-18.911-8.427-18.911-18.875C320.814,316.421,329.321,307.946,339.726,307.946z"
					/>
				<path style="fill:#FFFFFF;" d="M499.145,444.661c7.398-10.312,16.204-19.572,26.193-27.509
					c5.8-4.631,11.973-8.721,18.385-12.334H332.506c-30.542,0-55.284,24.705-55.284,55.215c0,30.487,24.742,55.229,55.284,55.229
					h141.346c0.533-7.9,1.702-15.801,3.631-23.616C481.63,474.78,488.918,458.968,499.145,444.661z M339.726,478.933
					c-10.405,0-18.911-8.452-18.911-18.9c0-10.423,8.506-18.899,18.911-18.899c10.448,0,18.924,8.476,18.924,18.899
					C358.65,470.48,350.174,478.933,339.726,478.933z"/>
				<path style="fill:#FFFFFF;" d="M500.339,605.996c-6.124-8.341-11.372-17.588-15.61-27.485
					c-5.629-13.105-9.082-26.75-10.479-40.542H332.506c-30.542,0-55.284,24.742-55.284,55.228c0,30.51,24.742,55.228,55.284,55.228
					h219.208C531.517,638.724,513.763,624.259,500.339,605.996z M339.726,612.097c-10.405,0-18.911-8.44-18.911-18.9
					c0-10.435,8.506-18.875,18.911-18.875c10.448,0,18.924,8.44,18.924,18.875C358.65,603.657,350.174,612.097,339.726,612.097z"/>
			</g>
		</g>
		<g>
			<path style="fill:#394145;" d="M729.022,661.188l-36.133-59.759c12.861-13.632,22.512-30.597,27.302-50.048
				c13.706-55.717-16.94-112.059-69.289-131.926c-4.226-1.593-8.537-3.038-13.032-4.128c-35.177-8.659-70.551,0.44-96.909,21.446
				c-8.084,6.43-15.298,13.963-21.41,22.488c-8.059,11.268-14.208,24.129-17.711,38.387c-6.063,24.594-3.355,49.324,5.953,70.991
				c3.405,7.962,7.643,15.531,12.763,22.501c15.041,20.467,37.051,36.01,63.593,42.539c22.512,5.536,45.147,3.833,65.431-3.613
				l15.323,25.354l19.732,32.629c3.687,6.112,9.554,10.167,15.996,11.746c6.443,1.593,13.498,0.724,19.634-3
				C732.525,689.395,736.444,673.449,729.022,661.188z M701.708,546.826c-7.802,31.673-30.988,55.534-59.637,65.688
				c-16.621,5.891-35.067,7.214-53.391,2.682c-9.407-2.303-18.103-5.965-25.966-10.729c-11.465-6.933-21.043-16.23-28.465-26.984
				c-14.649-21.239-20.577-48.344-13.939-75.303c5.904-24.007,20.7-43.507,40.003-55.975c20.871-13.522,47.009-18.79,73-12.419
				C683.335,446.107,714.018,496.816,701.708,546.826z M669.801,526.162c0.404,0,0.87-0.025,1.286-0.123
				c3.038-0.735,4.924-3.773,4.214-6.834c-5.561-23.443-22.096-42.673-43.874-51.884c-2.891-1.225-6.198,0.123-7.422,2.989
				c-1.225,2.89,0.135,6.197,2.989,7.423c18.52,7.814,32.617,24.178,37.309,44.094C664.902,524.422,667.253,526.162,669.801,526.162
				z M671.871,532.31c-3.111,0-5.634,2.549-5.634,5.659c0,3.123,2.523,5.647,5.634,5.647c3.136,0,5.671-2.523,5.671-5.647
				C677.542,534.859,675.007,532.31,671.871,532.31z"/>
		</g>
	</g>
</g>
<g id="Layer_1">
</g>
</svg>
