<?xml version="1.0" encoding="iso-8859-1"?>
<!-- Generator: Adobe Illustrator 17.1.0, SVG Export Plug-In . SVG Version: 6.00 Build 0)  -->
<!DOCTYPE svg PUBLIC "-//W3C//DTD SVG 1.1//EN" "http://www.w3.org/Graphics/SVG/1.1/DTD/svg11.dtd">
<svg version="1.1" xmlns="http://www.w3.org/2000/svg" xmlns:xlink="http://www.w3.org/1999/xlink" x="0px" y="0px"
	 viewBox="0 0 1010 1010" style="enable-background:new 0 0 1010 1010;" xml:space="preserve">
<g id="rack-server-lock">
	<path id="label_22_" style="fill:#FC6220;" d="M505.006,0C783.904,0,1010,226.096,1010,505.006
		C1010,783.879,783.904,1010,505.006,1010C226.107,1010,0,783.879,0,505.006C0,226.096,226.107,0,505.006,0z"/>
	<g id="icon_23_">
		<g>
			<rect x="593.482" y="713.976" style="fill:#FFFFFF;" width="126.256" height="11.709"/>
			<rect x="290.237" y="713.976" style="fill:#FFFFFF;" width="126.281" height="11.709"/>
			<polygon style="fill:#394145;" points="494.344,666.146 515.656,666.146 515.656,702.829 583.757,702.829 583.757,738.374 
				426.267,738.374 426.267,702.829 494.344,702.829 			"/>
		</g>
		<g>
			<path style="fill:#FFFFFF;" d="M641.777,382.106h27.474c30.498,0,55.24-24.766,55.24-55.264c0-30.51-24.742-55.216-55.24-55.216
				H340.786c-30.536,0-55.277,24.706-55.277,55.216c0,30.498,24.741,55.264,55.277,55.264h272.991
				c4.618-0.625,9.273-1.041,13.976-1.041C632.518,381.065,637.172,381.494,641.777,382.106z M348,345.717
				c-10.399,0-18.911-8.427-18.911-18.875c0-10.424,8.512-18.899,18.911-18.899c10.46,0,18.937,8.475,18.937,18.899
				C366.937,337.29,358.461,345.717,348,345.717z"/>
			<path style="fill:#FFFFFF;" d="M523.691,483.437c0.159-29.028,12.886-56.783,34.957-76.233c0.956-0.845,1.984-1.58,2.976-2.388
				H340.786c-30.536,0-55.277,24.692-55.277,55.215c0,30.487,24.741,55.228,55.277,55.228h165.34v-31.821H523.691z M348,478.93
				c-10.399,0-18.911-8.452-18.911-18.9c0-10.435,8.512-18.899,18.911-18.899c10.46,0,18.937,8.464,18.937,18.899
				C366.937,470.478,358.461,478.93,348,478.93z"/>
			<path style="fill:#FFFFFF;" d="M340.786,537.967c-30.536,0-55.277,24.742-55.277,55.228c0,30.51,24.741,55.228,55.277,55.228
				h165.34V537.967H340.786z M348,612.082c-10.399,0-18.911-8.427-18.911-18.887c0-10.435,8.512-18.886,18.911-18.886
				c10.46,0,18.937,8.451,18.937,18.886C366.937,603.655,358.461,612.082,348,612.082z"/>
		</g>
		<path style="fill:#394145;" d="M706.706,508.521v-24.509c0-42.942-35.398-77.863-78.953-77.863
			c-20.186,0-38.534,7.558-52.521,19.867c-16.192,14.269-26.457,34.944-26.457,57.996v24.509h-17.564v26.518v22.414v109.023h70.122
			H724.27V508.521H706.706z M644.644,572.605c0,7.117-4.055,13.057-9.787,16.389l9.787,53.146h-38.399l9.787-53.146
			c-5.744-3.333-9.787-9.273-9.787-16.389c0-10.594,8.599-19.181,19.193-19.181c1.188,0,2.217,0.465,3.344,0.699
			c5.855,1.065,10.668,4.532,13.4,9.59C643.603,566.395,644.644,569.359,644.644,572.605z M671.626,508.521h-23.749h-63.986v-24.509
			c0-23.173,20.088-42.758,43.862-42.758c4.703,0,9.186,0.954,13.46,2.363c17.381,5.708,30.413,21.79,30.413,40.395V508.521z"/>
	</g>
</g>
<g id="Layer_1">
</g>
</svg>
