<?xml version="1.0" encoding="iso-8859-1"?>
<!-- Generator: Adobe Illustrator 17.1.0, SVG Export Plug-In . SVG Version: 6.00 Build 0)  -->
<!DOCTYPE svg PUBLIC "-//W3C//DTD SVG 1.1//EN" "http://www.w3.org/Graphics/SVG/1.1/DTD/svg11.dtd">
<svg version="1.1" xmlns="http://www.w3.org/2000/svg" xmlns:xlink="http://www.w3.org/1999/xlink" x="0px" y="0px"
	 viewBox="0 0 1010 1010.006" style="enable-background:new 0 0 1010 1010.006;" xml:space="preserve">
<g id="rack-server-minus">
	<path id="label_19_" style="fill:#FC6220;" d="M504.997,0C783.903,0,1010,226.121,1010,504.997
		c0,278.912-226.097,505.009-505.003,505.009C226.103,1010.006,0,783.909,0,504.997C0,226.121,226.103,0,504.997,0z"/>
	<g id="icon_20_">
		<g>
			<rect x="573.23" y="713.972" style="fill:#FFFFFF;" width="126.256" height="11.709"/>
			<rect x="269.984" y="713.972" style="fill:#FFFFFF;" width="126.281" height="11.709"/>
			<polygon style="fill:#394145;" points="474.091,666.155 495.403,666.155 495.403,702.826 563.504,702.826 563.504,738.384 
				406.014,738.384 406.014,702.826 474.091,702.826 			"/>
		</g>
		<g>
			<path style="fill:#FFFFFF;" d="M320.533,382.115h328.464c30.498,0,55.24-24.779,55.24-55.276
				c0-30.499-24.742-55.216-55.24-55.216H320.533c-30.536,0-55.276,24.717-55.276,55.216
				C265.257,357.337,289.998,382.115,320.533,382.115z M327.748,307.94c10.46,0,18.936,8.487,18.936,18.899
				c0,10.448-8.476,18.886-18.936,18.886c-10.399,0-18.911-8.438-18.911-18.886C308.836,316.428,317.349,307.94,327.748,307.94z"/>
			<path style="fill:#FFFFFF;" d="M544.77,412.553c4.599-2.878,9.358-5.402,14.195-7.741H320.533
				c-30.536,0-55.276,24.705-55.276,55.215c0,30.487,24.741,55.228,55.276,55.228h156.84
				C483.73,473.023,507.933,435.641,544.77,412.553z M327.748,478.927c-10.399,0-18.911-8.452-18.911-18.9
				c0-10.423,8.512-18.886,18.911-18.886c10.46,0,18.936,8.464,18.936,18.886C346.684,470.475,338.208,478.927,327.748,478.927z"/>
			<path style="fill:#FFFFFF;" d="M477.68,561.077c-1.366-8.157-2.021-15.739-2.058-23.113H320.533
				c-30.536,0-55.276,24.742-55.276,55.228c0,30.523,24.741,55.228,55.276,55.228h206.385
				C501.392,626.384,483.363,595.8,477.68,561.077z M327.748,612.091c-10.399,0-18.911-8.44-18.911-18.9
				c0-10.435,8.512-18.875,18.911-18.875c10.46,0,18.936,8.44,18.936,18.875C346.684,603.652,338.208,612.091,327.748,612.091z"/>
		</g>
		<path style="fill:#394145;" d="M622.724,415.186c-23.774,0-45.857,6.884-64.634,18.618
			c-34.124,21.386-56.93,59.086-57.359,102.225c0,0.391-0.061,0.784-0.061,1.188c0,6.762,0.686,13.339,1.763,19.806
			c8.697,53.158,51.603,94.705,105.434,101.245c4.874,0.588,9.798,0.98,14.856,0.98c67.355,0,122.019-54.652,122.019-122.03
			C744.743,469.839,690.079,415.186,622.724,415.186z M677.046,552.76H568.342v-1.666v-14.723v-14.673h108.704V552.76z"/>
	</g>
</g>
<g id="Layer_1">
</g>
</svg>
