<?xml version="1.0" encoding="iso-8859-1"?>
<!-- Generator: Adobe Illustrator 17.1.0, SVG Export Plug-In . SVG Version: 6.00 Build 0)  -->
<!DOCTYPE svg PUBLIC "-//W3C//DTD SVG 1.1//EN" "http://www.w3.org/Graphics/SVG/1.1/DTD/svg11.dtd">
<svg version="1.1" xmlns="http://www.w3.org/2000/svg" xmlns:xlink="http://www.w3.org/1999/xlink" x="0px" y="0px"
	 viewBox="0 0 1010 1010" style="enable-background:new 0 0 1010 1010;" xml:space="preserve">
<g id="rack-server-shield">
	<path id="label_23_" style="fill:#0099CC;" d="M504.994,0C783.904,0,1010,226.104,1010,504.988
		C1010,783.883,783.904,1010,504.994,1010C226.108,1010,0,783.883,0,504.988C0,226.104,226.108,0,504.994,0z"/>
	<g id="icon_24_">
		<g>
			<rect x="588.694" y="713.969" style="fill:#FFFFFF;" width="126.256" height="11.709"/>
			<rect x="285.448" y="713.969" style="fill:#FFFFFF;" width="126.269" height="11.709"/>
			<polygon style="fill:#394145;" points="489.555,666.152 510.855,666.152 510.855,702.823 578.968,702.823 578.968,738.38 
				421.466,738.38 421.466,702.823 489.555,702.823 			"/>
		</g>
		<g>
			<path style="fill:#FFFFFF;" d="M335.985,382.112h328.477c30.498,0,55.228-24.779,55.228-55.276
				c0-30.499-24.73-55.216-55.228-55.216H335.985c-30.536,0-55.276,24.717-55.276,55.216
				C280.708,357.334,305.449,382.112,335.985,382.112z M343.212,307.937c10.448,0,18.924,8.487,18.924,18.899
				c0,10.448-8.476,18.886-18.924,18.886c-10.411,0-18.911-8.438-18.911-18.886C324.3,316.424,332.8,307.937,343.212,307.937z"/>
			<path style="fill:#FFFFFF;" d="M494.491,467.423v-26.886l25.856-7.495c17.675-5.06,31.013-13.131,45.393-22.378l3.025-1.899
				c2.046-1.323,4.103-2.645,6.186-3.956H335.985c-30.536,0-55.276,24.705-55.276,55.215c0,30.487,24.741,55.228,55.276,55.228
				h159.891c-0.282-2.743-0.65-5.462-0.833-8.23C494.626,500.542,494.491,467.741,494.491,467.423z M343.212,478.924
				c-10.411,0-18.911-8.452-18.911-18.9c0-10.423,8.5-18.886,18.911-18.886c10.448,0,18.924,8.464,18.924,18.886
				C362.135,470.472,353.659,478.924,343.212,478.924z"/>
			<path style="fill:#FFFFFF;" d="M522.564,598.087c-6.577-11.047-12.224-23.369-16.719-36.561
				c-2.732-8.047-4.728-15.028-6.259-22.023l-0.197-0.869l-0.098-0.674H335.985c-30.536,0-55.276,24.742-55.276,55.228
				c0,30.523,24.741,55.228,55.276,55.228H565.85C551.213,636.376,535.559,620.025,522.564,598.087z M343.212,612.088
				c-10.411,0-18.911-8.44-18.911-18.9c0-10.435,8.5-18.875,18.911-18.875c10.448,0,18.924,8.44,18.924,18.875
				C362.135,603.648,353.659,612.088,343.212,612.088z"/>
		</g>
		<path style="fill:#394145;" d="M721.539,457.134c-22.771-6.504-39.698-17.443-54.641-27.032
			c-15.115-9.725-28.146-18.14-42.477-18.14c-14.294,0-27.338,8.415-42.44,18.127c-0.869,0.539-1.813,1.128-2.67,1.678
			c-14.306,9.199-30.51,19.217-51.982,25.367l-7.754,2.241v8.047c0,4.054,0.184,33.119,0.503,37.945
			c0.612,9.284,1.898,18.457,3.771,27.313c0.087,0.478,0.136,0.956,0.233,1.434c1.506,6.847,3.418,13.178,5.5,19.303
			c4.03,11.807,8.953,22.463,14.563,31.883c21.937,37.015,52.84,56.098,67.806,63.667c4.913,2.486,8.134,3.748,8.71,3.981
			l3.76,1.408l3.735-1.408c2.462-0.919,47.39-18.52,76.577-67.648c8.5-14.293,15.69-31.148,20.014-51.185
			c2.058-9.298,3.393-18.961,4.017-28.747c0.331-4.826,0.527-33.892,0.527-37.945v-8.047L721.539,457.134z M692.168,585.3
			c-27.829,42.661-67.746,57.628-67.746,57.628v-2.547V585.3v-17.894v-35.557h-26.346h-63.544
			c-1.837-8.489-3.161-17.515-3.773-27.167c-0.281-4.41-0.502-32.605-0.502-37.259c30.081-8.612,50.769-24.473,67.782-34.81
			c9.602-5.855,18.091-9.959,26.383-9.959v23.089v58.939v14.024v13.143h89.903C709.682,553.197,701.623,570.823,692.168,585.3z"/>
	</g>
</g>
<g id="Layer_1">
</g>
</svg>
