<?xml version="1.0" encoding="iso-8859-1"?>
<!-- Generator: Adobe Illustrator 17.1.0, SVG Export Plug-In . SVG Version: 6.00 Build 0)  -->
<!DOCTYPE svg PUBLIC "-//W3C//DTD SVG 1.1//EN" "http://www.w3.org/Graphics/SVG/1.1/DTD/svg11.dtd">
<svg version="1.1" xmlns="http://www.w3.org/2000/svg" xmlns:xlink="http://www.w3.org/1999/xlink" x="0px" y="0px"
	 viewBox="0 0 1010 1010" style="enable-background:new 0 0 1010 1010;" xml:space="preserve">
<g id="rack-server-lightning">
	<path id="label_24_" style="fill:#FC6220;" d="M505.003,0C783.909,0,1010,226.076,1010,505.005
		C1010,783.899,783.909,1010,505.003,1010C226.108,1010,0,783.899,0,505.005C0,226.076,226.108,0,505.003,0z"/>
	<g id="icon_25_">
		<g>
			<rect x="582.318" y="713.976" style="fill:#FFFFFF;" width="126.256" height="11.71"/>
			<rect x="279.073" y="713.976" style="fill:#FFFFFF;" width="126.28" height="11.71"/>
			<polygon style="fill:#394145;" points="483.18,666.158 504.491,666.158 504.491,702.829 572.592,702.829 572.592,738.374 
				415.104,738.374 415.104,702.829 483.18,702.829 			"/>
		</g>
		<g>
			<path style="fill:#FFFFFF;" d="M603.3,271.626H329.621c-30.534,0-55.276,24.706-55.276,55.216
				c0,30.498,24.742,55.276,55.276,55.276h205.014c0.366-0.748,0.574-1.543,1.016-2.254L603.3,271.626z M336.836,345.717
				c-10.399,0-18.911-8.427-18.911-18.875c0-10.424,8.512-18.9,18.911-18.9c10.46,0,18.936,8.476,18.936,18.9
				C355.772,337.29,347.296,345.717,336.836,345.717z"/>
			<path style="fill:#FFFFFF;" d="M549.382,501.099l41.425-82.847h-33.879c-9.113,0-17.515-4.949-21.937-12.935
				c-0.086-0.159-0.11-0.342-0.197-0.502H329.621c-30.534,0-55.276,24.705-55.276,55.215c0,30.487,24.742,55.228,55.276,55.228
				h217.36C546.418,510.531,547.116,505.619,549.382,501.099z M336.836,478.929c-10.399,0-18.911-8.451-18.911-18.899
				c0-10.423,8.512-18.899,18.911-18.899c10.46,0,18.936,8.476,18.936,18.899C355.772,470.478,347.296,478.929,336.836,478.929z"/>
			<path style="fill:#FFFFFF;" d="M658.086,515.258c30.499,0,55.24-24.741,55.24-55.228c0-14.881-5.953-28.318-15.519-38.239
				l-93.455,93.467H658.086z"/>
			<path style="fill:#FFFFFF;" d="M658.086,537.967H329.621c-30.534,0-55.276,24.741-55.276,55.228
				c0,30.51,24.742,55.228,55.276,55.228h328.464c30.499,0,55.24-24.717,55.24-55.228
				C713.326,562.708,688.585,537.967,658.086,537.967z M336.836,612.093c-10.399,0-18.911-8.438-18.911-18.899
				c0-10.435,8.512-18.875,18.911-18.875c10.46,0,18.936,8.44,18.936,18.875C355.772,603.655,347.296,612.093,336.836,612.093z"/>
		</g>
		<polygon style="fill:#394145;" points="735.655,274.015 631.397,274.015 556.927,393.167 631.397,393.167 571.821,512.319 
			720.761,363.379 646.291,363.379 		"/>
	</g>
</g>
<g id="Layer_1">
</g>
</svg>
