<?xml version="1.0" encoding="iso-8859-1"?>
<!-- Generator: Adobe Illustrator 17.1.0, SVG Export Plug-In . SVG Version: 6.00 Build 0)  -->
<!DOCTYPE svg PUBLIC "-//W3C//DTD SVG 1.1//EN" "http://www.w3.org/Graphics/SVG/1.1/DTD/svg11.dtd">
<svg version="1.1" xmlns="http://www.w3.org/2000/svg" xmlns:xlink="http://www.w3.org/1999/xlink" x="0px" y="0px"
	 viewBox="0 0 1010 1010" style="enable-background:new 0 0 1010 1010;" xml:space="preserve">
<g id="rack-server">
	<path id="label_8_" style="fill:#FC6220;" d="M505.003,0C783.898,0,1010,226.106,1010,505.003S783.898,1010,505.003,1010
		C226.096,1010,0,783.9,0,505.003S226.096,0,505.003,0z"/>
	<g id="icon_8_">
		<g>
			<path style="fill:#FFFFFF;" d="M707.202,529.919H302.744c-26.782,0-48.59,22.408-48.59,50.072
				c0,27.517,21.809,49.955,48.59,49.955h404.458c26.805,0,48.644-22.438,48.644-49.955
				C755.846,552.327,734.008,529.919,707.202,529.919z M574.014,590.292H312.707c-5.904,0-10.705-4.93-10.705-10.962
				c0-6.088,4.801-10.963,10.705-10.963h261.307c5.916,0,10.705,4.875,10.705,10.963
				C584.719,585.361,579.93,590.292,574.014,590.292z M638.838,595.694c-9.088,0-16.394-7.307-16.394-16.364
				c0-9.113,7.306-16.474,16.394-16.474c9.113,0,16.432,7.361,16.432,16.474C655.269,588.386,647.951,595.694,638.838,595.694z
				 M715.954,593.929h-29.231v-29.212h29.231V593.929z"/>
			<path style="fill:#FFFFFF;" d="M707.202,407.504H302.744c-26.782,0-48.59,22.427-48.59,50.059
				c0,27.547,21.809,49.974,48.59,49.974h404.458c26.805,0,48.644-22.427,48.644-49.974
				C755.846,429.931,734.008,407.504,707.202,407.504z M574.014,467.894H312.707c-5.904,0-10.705-4.942-10.705-10.975
				c0-6.076,4.801-10.949,10.705-10.949h261.307c5.916,0,10.705,4.874,10.705,10.949
				C584.719,462.952,579.93,467.894,574.014,467.894z M638.838,473.283c-9.088,0-16.394-7.293-16.394-16.364
				c0-9.101,7.306-16.462,16.394-16.462c9.113,0,16.432,7.361,16.432,16.462C655.269,465.99,647.951,473.283,638.838,473.283z
				 M715.954,471.52h-29.231v-29.219h29.231V471.52z"/>
			<path style="fill:#FFFFFF;" d="M707.202,285.106H302.744c-26.782,0-48.59,22.421-48.59,50.053
				c0,27.534,21.809,49.974,48.59,49.974h404.458c26.805,0,48.644-22.44,48.644-49.974
				C755.846,307.526,734.008,285.106,707.202,285.106z M574.014,345.489H312.707c-5.904,0-10.705-4.954-10.705-10.975
				c0-6.087,4.801-10.975,10.705-10.975h261.307c5.916,0,10.705,4.888,10.705,10.975
				C584.719,340.535,579.93,345.489,574.014,345.489z M638.838,350.866c-9.088,0-16.394-7.306-16.394-16.351
				c0-9.125,7.306-16.473,16.394-16.473c9.113,0,16.432,7.349,16.432,16.473C655.269,343.56,647.951,350.866,638.838,350.866z
				 M715.954,349.103h-29.231v-29.2h29.231V349.103z"/>
		</g>
		<g>
			<rect x="603.073" y="697.851" style="fill:#FFFFFF;" width="139.937" height="12.989"/>
			<rect x="266.991" y="697.851" style="fill:#FFFFFF;" width="139.937" height="12.989"/>
			<polygon style="fill:#394145;" points="493.199,644.858 516.814,644.858 516.814,685.504 592.294,685.504 592.294,724.894 
				417.737,724.894 417.737,685.504 493.199,685.504 			"/>
		</g>
	</g>
</g>
<g id="Layer_1">
</g>
</svg>
