<?xml version="1.0" encoding="iso-8859-1"?>
<!-- Generator: Adobe Illustrator 17.1.0, SVG Export Plug-In . SVG Version: 6.00 Build 0)  -->
<!DOCTYPE svg PUBLIC "-//W3C//DTD SVG 1.1//EN" "http://www.w3.org/Graphics/SVG/1.1/DTD/svg11.dtd">
<svg version="1.1" xmlns="http://www.w3.org/2000/svg" xmlns:xlink="http://www.w3.org/1999/xlink" x="0px" y="0px"
	 viewBox="0 0 1010 1010" style="enable-background:new 0 0 1010 1010;" xml:space="preserve">
<g id="rack-server-2">
	<path id="label_35_" style="fill:#394145;" d="M505,0c278.914,0,505,226.086,505,504.987S783.914,1010,505,1010
		C226.105,1010,0,783.889,0,504.987S226.105,0,505,0z"/>
	<g id="icon_35_">
		<g>
			<rect x="593.482" y="713.969" style="fill:#FFFFFF;" width="126.256" height="11.71"/>
			<rect x="290.238" y="713.969" style="fill:#FFFFFF;" width="126.28" height="11.71"/>
			<polygon style="fill:#DFE3EB;" points="494.344,666.151 515.656,666.151 515.656,702.824 583.757,702.824 583.757,738.367 
				426.268,738.367 426.268,702.824 494.344,702.824 			"/>
		</g>
		<g>
			<path style="fill:#FFFFFF;" d="M724.49,326.823c0-30.498-24.741-55.215-55.24-55.215H340.787
				c-30.536,0-55.278,24.717-55.278,55.215c0,30.499,24.742,55.289,55.278,55.289H669.25
				C699.75,382.112,724.49,357.322,724.49,326.823z M366.937,326.823c0,10.46-8.476,18.887-18.936,18.887
				c-10.399,0-18.911-8.427-18.911-18.887c0-10.41,8.512-18.886,18.911-18.886C358.461,307.936,366.937,316.413,366.937,326.823z"/>
			<path style="fill:#FFFFFF;" d="M724.49,460.012c0-30.499-24.741-55.216-55.24-55.216H340.787
				c-30.536,0-55.278,24.717-55.278,55.216c0,30.498,24.742,55.24,55.278,55.24H669.25C699.75,515.252,724.49,490.51,724.49,460.012
				z M366.937,460.012c0,10.46-8.476,18.911-18.936,18.911c-10.399,0-18.911-8.451-18.911-18.911
				c0-10.411,8.512-18.887,18.911-18.887C358.461,441.125,366.937,449.601,366.937,460.012z"/>
			<path style="fill:#FFFFFF;" d="M724.49,593.176c0-30.474-24.741-55.216-55.24-55.216H340.787
				c-30.536,0-55.278,24.742-55.278,55.216c0,30.523,24.742,55.24,55.278,55.24H669.25
				C699.75,648.416,724.49,623.699,724.49,593.176z M366.937,593.176c0,10.46-8.476,18.911-18.936,18.911
				c-10.399,0-18.911-8.451-18.911-18.911c0-10.436,8.512-18.862,18.911-18.862C358.461,574.314,366.937,582.74,366.937,593.176z"/>
		</g>
	</g>
</g>
<g id="Layer_1">
</g>
</svg>
