<?xml version="1.0" encoding="iso-8859-1"?>
<!-- Generator: Adobe Illustrator 17.1.0, SVG Export Plug-In . SVG Version: 6.00 Build 0)  -->
<!DOCTYPE svg PUBLIC "-//W3C//DTD SVG 1.1//EN" "http://www.w3.org/Graphics/SVG/1.1/DTD/svg11.dtd">
<svg version="1.1" xmlns="http://www.w3.org/2000/svg" xmlns:xlink="http://www.w3.org/1999/xlink" x="0px" y="0px"
	 viewBox="0 0 1010 1010" style="enable-background:new 0 0 1010 1010;" xml:space="preserve">
<g id="rack-server-unlock">
	<path id="label_21_" style="fill:#394145;" d="M504.994,0C783.905,0,1010,226.095,1010,505.006
		C1010,783.893,783.905,1010,504.994,1010C226.107,1010,0,783.893,0,505.006C0,226.095,226.107,0,504.994,0z"/>
	<g id="icon_22_">
		<g>
			<rect x="572.091" y="713.976" style="fill:#FFFFFF;" width="126.256" height="11.709"/>
			<rect x="268.845" y="713.976" style="fill:#FFFFFF;" width="126.281" height="11.709"/>
			<polygon style="fill:#DFE3EB;" points="472.953,666.146 494.264,666.146 494.264,702.829 562.365,702.829 562.365,738.374 
				404.875,738.374 404.875,702.829 472.953,702.829 			"/>
		</g>
		<g>
			<path style="fill:#FFFFFF;" d="M319.394,382.106h328.464c30.498,0,55.24-24.766,55.24-55.264
				c0-30.512-24.742-55.216-55.24-55.216H319.394c-30.547,0-55.289,24.705-55.289,55.216
				C264.105,357.34,288.848,382.106,319.394,382.106z M326.609,307.942c10.46,0,18.936,8.476,18.936,18.9
				c0,10.448-8.476,18.874-18.936,18.874c-10.399,0-18.911-8.426-18.911-18.874C307.697,316.418,316.21,307.942,326.609,307.942z"/>
			<path style="fill:#FFFFFF;" d="M582.796,473.907c0.391-27.007,12.825-51.895,32.495-69.092H319.394
				c-30.547,0-55.289,24.692-55.289,55.215c0,30.487,24.742,55.228,55.289,55.228h156.008v-41.351H582.796z M326.609,478.929
				c-10.399,0-18.911-8.451-18.911-18.899c0-10.435,8.512-18.899,18.911-18.899c10.46,0,18.936,8.464,18.936,18.899
				C345.545,470.478,337.069,478.929,326.609,478.929z"/>
			<path style="fill:#FFFFFF;" d="M319.394,537.967c-30.547,0-55.289,24.741-55.289,55.228c0,30.51,24.742,55.228,55.289,55.228
				h156.008V537.967H319.394z M326.609,612.082c-10.399,0-18.911-8.427-18.911-18.888c0-10.435,8.512-18.887,18.911-18.887
				c10.46,0,18.936,8.452,18.936,18.887C345.545,603.655,337.069,612.082,326.609,612.082z"/>
		</g>
		<path style="fill:#0099CC;" d="M676.863,406.505c-6.81,0-13.375,1.03-19.597,2.866c-28.539,8.44-49.41,34.786-49.41,65.921v23.7
			H500.487v6.517v22.427v109.096h121.92h46.789v-26.958v-55.166v-55.915h-21.435h-9.235v-23.7c0-20.394,16.216-36.953,36.476-37.933
			c0.661-0.025,1.249-0.196,1.861-0.196c21.165,0,38.337,17.098,38.337,38.129v23.7h30.695v-23.7
			C745.895,437.359,714.93,406.505,676.863,406.505z M603.201,621.083H564.79l10.02-53.696c-5.88-3.32-10.02-9.358-10.02-16.56
			c0-10.632,8.623-19.219,19.23-19.219c10.608,0,19.181,8.586,19.181,19.219c0,7.202-4.139,13.24-9.994,16.56L603.201,621.083z"/>
	</g>
</g>
<g id="Layer_1">
</g>
</svg>
