<?xml version="1.0" encoding="iso-8859-1"?>
<!-- Generator: Adobe Illustrator 17.1.0, SVG Export Plug-In . SVG Version: 6.00 Build 0)  -->
<!DOCTYPE svg PUBLIC "-//W3C//DTD SVG 1.1//EN" "http://www.w3.org/Graphics/SVG/1.1/DTD/svg11.dtd">
<svg version="1.1" xmlns="http://www.w3.org/2000/svg" xmlns:xlink="http://www.w3.org/1999/xlink" x="0px" y="0px"
	 viewBox="0 0 1010 1010" style="enable-background:new 0 0 1010 1010;" xml:space="preserve">
<g id="rack-server-plus">
	<path id="label_20_" style="fill:#0099CC;" d="M504.993,0C783.899,0,1010,226.098,1010,505c0,278.903-226.101,505-505.007,505
		C226.095,1010,0,783.903,0,505C0,226.098,226.095,0,504.993,0z"/>
	<g id="icon_21_">
		<g>
			<rect x="573.23" y="713.969" style="fill:#FFFFFF;" width="126.256" height="11.709"/>
			<rect x="269.984" y="713.969" style="fill:#FFFFFF;" width="126.281" height="11.709"/>
			<polygon style="fill:#394145;" points="474.091,666.152 495.403,666.152 495.403,702.823 563.504,702.823 563.504,738.38 
				406.014,738.38 406.014,702.823 474.091,702.823 			"/>
		</g>
		<g>
			<path style="fill:#FFFFFF;" d="M320.533,382.112h328.464c30.498,0,55.24-24.779,55.24-55.276
				c0-30.499-24.742-55.216-55.24-55.216H320.533c-30.536,0-55.276,24.717-55.276,55.216
				C265.257,357.334,289.998,382.112,320.533,382.112z M327.748,307.936c10.46,0,18.936,8.489,18.936,18.9
				c0,10.448-8.476,18.886-18.936,18.886c-10.399,0-18.911-8.438-18.911-18.886C308.836,316.424,317.349,307.936,327.748,307.936z"
				/>
			<path style="fill:#FFFFFF;" d="M544.763,412.549c4.594-2.877,9.358-5.401,14.197-7.74H320.533
				c-30.536,0-55.276,24.705-55.276,55.215c0,30.487,24.741,55.228,55.276,55.228h156.84
				C483.73,473.019,507.933,435.638,544.763,412.549z M327.748,478.923c-10.399,0-18.911-8.451-18.911-18.899
				c0-10.424,8.512-18.887,18.911-18.887c10.46,0,18.936,8.464,18.936,18.887C346.684,470.472,338.208,478.923,327.748,478.923z"/>
			<path style="fill:#FFFFFF;" d="M477.68,561.072c-1.36-8.156-2.021-15.738-2.058-23.112H320.533
				c-30.536,0-55.276,24.741-55.276,55.228c0,30.523,24.741,55.228,55.276,55.228h206.385
				C501.392,626.381,483.363,595.797,477.68,561.072z M327.748,612.087c-10.399,0-18.911-8.438-18.911-18.899
				c0-10.435,8.512-18.875,18.911-18.875c10.46,0,18.936,8.44,18.936,18.875C346.684,603.648,338.208,612.087,327.748,612.087z"/>
		</g>
		<path style="fill:#394145;" d="M622.725,415.183c-23.774,0-45.859,6.883-64.636,18.618
			c-34.124,21.386-56.93,59.086-57.359,102.225c0,0.391-0.061,0.784-0.061,1.188c0,6.762,0.686,13.339,1.763,19.806
			c8.697,53.158,51.603,94.705,105.434,101.245c4.875,0.587,9.798,0.98,14.858,0.98c67.353,0,122.018-54.652,122.018-122.03
			S690.079,415.183,622.725,415.183z M677.046,552.757h-38.802v19.768v19.059h-31.086v-38.827h-38.816v-1.667v-14.722v-14.673
			h38.816v-38.827h29.212h1.874v3.393v28.673v6.762h38.802V552.757z"/>
	</g>
</g>
<g id="Layer_1">
</g>
</svg>
