<?xml version="1.0" encoding="iso-8859-1"?>
<!-- Generator: Adobe Illustrator 17.1.0, SVG Export Plug-In . SVG Version: 6.00 Build 0)  -->
<!DOCTYPE svg PUBLIC "-//W3C//DTD SVG 1.1//EN" "http://www.w3.org/Graphics/SVG/1.1/DTD/svg11.dtd">
<svg version="1.1" xmlns="http://www.w3.org/2000/svg" xmlns:xlink="http://www.w3.org/1999/xlink" x="0px" y="0px"
	 viewBox="0 0 1010 1009.995" style="enable-background:new 0 0 1010 1009.995;" xml:space="preserve">
<g id="satisfaction-guaranteed">
	<path id="label_29_" style="fill:#394145;" d="M505.003,0C783.891,0,1010,226.085,1010,504.997
		c0,278.9-226.109,504.997-504.997,504.997C226.09,1009.995,0,783.898,0,504.997C0,226.085,226.09,0,505.003,0z"/>
	<g id="icon_29_">
		<g id="_x36__1_">
			<path id="_x36__2_" style="fill:#FFFFFF;" d="M717.662,441.369l-36.996-31.504h0.019c-0.208-0.196-0.582-1.309-0.539-1.8
				l-0.019-0.036l16.328-45.858c0.735-2.167,1.151-4.36,1.151-6.639c0.208-8.954-6.866-17.172-15.739-18.556L634,328.242
				l-0.006-0.049c-0.276-0.134-0.765-0.563-1.041-0.931c-0.128-0.183-0.232-0.355-0.27-0.44l0,0l-8.727-47.781
				c-1.396-8.856-9.596-15.924-18.563-15.714c-2.278,0-4.544,0.391-6.644,1.15l-45.718,16.279c-0.03,0-0.092,0.013-0.189,0.013
				c-0.312,0-0.943-0.123-1.36-0.295c-0.208-0.073-0.367-0.171-0.429-0.232c-0.018-0.013-0.018-0.013-0.018-0.013l-31.472-36.953
				c-3.595-4.274-9.052-6.896-14.558-6.859c-5.547-0.036-10.975,2.585-14.569,6.872l-31.472,36.953
				c-0.238,0.196-1.341,0.576-1.812,0.527c-0.079,0-0.117-0.013-0.159-0.013l-45.742-16.279c-2.125-0.771-4.402-1.175-6.644-1.175
				c-8.966-0.184-17.173,6.883-18.563,15.739l-8.733,47.879c-0.013,0-0.043,0.011-0.043,0.011c-0.142,0.27-0.558,0.76-0.937,1.041
				c-0.166,0.135-0.331,0.233-0.416,0.27c-0.013,0-0.013,0-0.013,0h0.013l-47.787,8.733c-8.867,1.36-15.941,9.591-15.739,18.556
				c0,2.279,0.404,4.532,1.188,6.664l16.26,45.674c0.006,0.036,0.006,0.098,0.006,0.196c0.013,0.319-0.104,0.943-0.3,1.36
				c-0.085,0.221-0.178,0.367-0.227,0.44c-0.006,0.025-0.006,0.025-0.006,0.025l-36.953,31.479
				c-4.274,3.576-6.877,9.039-6.847,14.55c-0.03,5.524,2.572,10.975,6.847,14.552l36.96,31.477h-0.006
				c0.214,0.197,0.588,1.336,0.533,1.825c0,0.061,0,0.135,0,0.159l-16.296,45.736c-0.771,2.107-1.158,4.434-1.158,6.639
				c-0.202,8.99,6.872,17.173,15.714,18.569l47.898,8.733l0.019,0.036c0.263,0.147,0.753,0.563,1.028,0.943
				c0.147,0.184,0.232,0.344,0.281,0.429l8.716,47.781c1.366,8.855,9.596,15.922,18.563,15.714c2.248,0.024,4.495-0.38,6.62-1.139
				l45.87-16.328c0.055-0.024,0.055,0.025,0.055,0.025c0.312-0.013,0.943,0.11,1.366,0.294c0.214,0.098,0.386,0.183,0.447,0.245
				v-0.011l31.497,36.977c3.539,4.262,9.027,6.883,14.533,6.834c0.049,0,0.092,0,0.128,0c5.481,0,10.877-2.596,14.416-6.834
				l31.497-36.99c0.183-0.172,1.328-0.563,1.806-0.514c0.098,0,0.166,0.011,0.189,0.024l45.718,16.266
				c2.125,0.771,4.366,1.175,6.639,1.175c8.971,0.184,17.159-6.858,18.568-15.727l8.733-47.878l0.043-0.013
				c0.142-0.27,0.558-0.76,0.913-1.03c0.177-0.147,0.336-0.245,0.423-0.268c0.018,0,0.018-0.013,0.018-0.013l47.781-8.721
				c8.874-1.434,15.922-9.591,15.739-18.581c0-2.216-0.38-4.47-1.151-6.639l-16.328-45.833l-0.11-0.061h0.129
				c0-0.317,0.117-0.931,0.294-1.358c0.086-0.197,0.178-0.356,0.246-0.441l0,0l36.965-31.503c4.263-3.59,6.872-9.015,6.841-14.552
				C724.522,450.408,721.919,444.957,717.662,441.369z M673.832,486.051c-6.259,5.585-8.776,12.64-8.923,20.112
				c0,2.584,0.349,5.364,1.383,8.219l15.574,43.665l-45.723,8.329c-5.579,1.077-9.915,3.833-13.405,7.275
				c-3.443,3.479-6.192,7.828-7.276,13.413l-8.359,45.698l-43.751-15.568c-2.738-0.992-5.481-1.372-8.115-1.372
				c-7.453,0.148-14.52,2.659-20.148,8.954L505,660.124l-30.13-35.373c-5.598-6.271-12.653-8.782-20.105-8.93
				c-2.621,0-5.377,0.356-8.183,1.385L402.88,632.76l-8.336-45.698c-1.077-5.598-3.815-9.934-7.269-13.413
				c-3.491-3.442-7.839-6.197-13.405-7.275l-45.712-8.329l15.58-43.775c0.968-2.768,1.353-5.512,1.353-8.109
				c-0.147-7.471-2.658-14.526-8.898-20.112l-35.379-30.132l35.373-30.118c6.259-5.623,8.757-12.678,8.904-20.137
				c0-2.634-0.391-5.328-1.335-8.072l-15.599-43.788l45.712-8.341c5.566-1.079,9.915-3.834,13.405-7.263
				c3.454-3.491,6.192-7.826,7.269-13.413l8.353-45.71l43.751,15.58c2.768,0.98,5.494,1.347,8.115,1.347
				c7.453-0.147,14.508-2.658,20.105-8.892L505,251.715l30.132,35.373c5.598,6.271,12.653,8.77,20.105,8.916
				c2.634,0,5.347-0.391,8.078-1.322l43.818-15.605l8.329,45.71c1.084,5.586,3.833,9.922,7.276,13.413
				c3.491,3.442,7.826,6.185,13.405,7.263l45.699,8.353l-15.569,43.739c-0.98,2.732-1.365,5.475-1.365,8.109
				c0.147,7.459,2.645,14.527,8.923,20.137l35.354,30.118L673.832,486.051z M505,309.674c-80.765,0-146.232,65.48-146.232,146.245
				c0,80.766,65.467,146.221,146.232,146.246c80.766-0.025,146.233-65.48,146.24-146.246
				C651.233,375.154,585.766,309.674,505,309.674z M595.602,546.532c-23.223,23.198-55.185,37.529-90.602,37.529
				c-35.409,0-67.377-14.331-90.601-37.529c-23.211-23.235-37.542-55.191-37.542-90.613c0-35.409,14.331-67.39,37.542-90.613
				c23.223-23.186,55.191-37.529,90.601-37.529c35.417,0,67.379,14.343,90.602,37.529c23.211,23.223,37.523,55.204,37.54,90.613
				C633.125,491.341,618.813,523.297,595.602,546.532z"/>
			<path style="fill:#FC6220;" d="M452.553,642.046l14.343,16.841l-48.363,113.065c-0.882,2.082-2.56,2.18-3.705,0.221
				l-32.201-55.841c-1.133-1.984-3.894-3.159-6.099-2.609l-62.633,15.261c-2.21,0.539-3.301-0.735-2.401-2.842l56.294-131.608v4.397
				l1.464-0.735l7.348,40.297c1.893,11.464,11.962,20.295,23.818,20.418c0.134,0,0.275,0,0.447-0.013c0.019,0,0.055,0,0.08,0l0,0
				c0.171,0,0.342,0,0.495,0l0.735-0.013l0.055-0.024c2.419-0.135,4.826-0.612,7.098-1.434L452.553,642.046z"/>
			<path style="fill:#FC6220;" d="M698.507,726.142c0.899,2.107-0.191,3.381-2.401,2.842l-62.633-15.261
				c-2.205-0.551-4.967,0.625-6.099,2.609l-32.201,55.841c-1.145,1.959-2.798,1.861-3.705-0.221l-48.363-113.065l14.331-16.841
				l43.199,15.383c2.689,0.956,5.561,1.482,8.501,1.482h0.068c0.036,0,0.177,0.013,0.355,0.013
				c11.85-0.135,21.906-8.966,23.842-20.553l8.218-44.975l0.092-0.025L698.507,726.142z"/>
		</g>
		<g>
			<path style="fill:#FFFFFF;" d="M442.73,479.582v11.146h-35.734v-11.146h12.646v-43.567c0-0.943,0.013-1.923,0.043-2.902
				c0.03-0.992,0.074-2.009,0.129-3.026l-8.342,8.673c-0.582,0.551-1.151,0.893-1.708,1.041c-0.557,0.147-1.084,0.159-1.58,0.024
				c-0.495-0.122-0.937-0.342-1.317-0.661c-0.379-0.306-0.674-0.625-0.882-0.956l-3.815-6.418l19.58-20.749h9.964v68.541H442.73z"/>
			<path style="fill:#FFFFFF;" d="M497.732,450.886c0,6.945-0.601,12.995-1.801,18.115c-1.2,5.12-2.847,9.358-4.96,12.689
				c-2.107,3.356-4.599,5.842-7.484,7.471c-2.878,1.617-5.989,2.437-9.326,2.437c-3.339,0-6.437-0.82-9.309-2.437
				c-2.866-1.629-5.341-4.115-7.416-7.471c-2.077-3.331-3.711-7.569-4.894-12.689c-1.188-5.12-1.776-11.17-1.776-18.115
				c0-6.946,0.588-12.971,1.776-18.08c1.183-5.107,2.817-9.32,4.894-12.677c2.076-3.356,4.55-5.83,7.416-7.471
				c2.872-1.617,5.97-2.426,9.309-2.426c3.337,0,6.448,0.809,9.326,2.426c2.885,1.642,5.377,4.115,7.484,7.471
				c2.113,3.356,3.76,7.569,4.96,12.677C497.131,437.914,497.732,443.94,497.732,450.886z M485.22,450.886
				c0-5.635-0.312-10.277-0.943-13.94c-0.625-3.662-1.451-6.552-2.481-8.659c-1.022-2.131-2.197-3.613-3.533-4.459
				c-1.328-0.833-2.7-1.249-4.103-1.249c-1.404,0-2.757,0.416-4.061,1.249c-1.304,0.845-2.456,2.328-3.465,4.459
				c-1.011,2.107-1.825,4.997-2.438,8.659c-0.612,3.662-0.924,8.304-0.924,13.94c0,5.67,0.312,10.337,0.924,14
				c0.613,3.65,1.427,6.54,2.438,8.672c1.01,2.106,2.161,3.601,3.465,4.434c1.304,0.845,2.658,1.262,4.061,1.262
				c1.402,0,2.774-0.416,4.103-1.262c1.336-0.833,2.511-2.328,3.533-4.434c1.03-2.132,1.856-5.022,2.481-8.672
				C484.907,461.223,485.22,456.556,485.22,450.886z"/>
			<path style="fill:#FFFFFF;" d="M549.529,450.886c0,6.945-0.6,12.995-1.8,18.115c-1.2,5.12-2.848,9.358-4.961,12.689
				c-2.107,3.356-4.599,5.842-7.484,7.471c-2.878,1.617-5.989,2.437-9.328,2.437c-3.337,0-6.435-0.82-9.308-2.437
				c-2.867-1.629-5.341-4.115-7.418-7.471c-2.076-3.331-3.71-7.569-4.893-12.689c-1.188-5.12-1.776-11.17-1.776-18.115
				c0-6.946,0.588-12.971,1.776-18.08c1.183-5.107,2.817-9.32,4.893-12.677c2.077-3.356,4.55-5.83,7.418-7.471
				c2.872-1.617,5.97-2.426,9.308-2.426c3.339,0,6.449,0.809,9.328,2.426c2.885,1.642,5.377,4.115,7.484,7.471
				c2.112,3.356,3.76,7.569,4.961,12.677C548.929,437.914,549.529,443.94,549.529,450.886z M537.018,450.886
				c0-5.635-0.312-10.277-0.943-13.94c-0.625-3.662-1.451-6.552-2.481-8.659c-1.022-2.131-2.199-3.613-3.533-4.459
				c-1.329-0.833-2.7-1.249-4.104-1.249c-1.402,0-2.756,0.416-4.06,1.249c-1.304,0.845-2.456,2.328-3.467,4.459
				c-1.01,2.107-1.825,4.997-2.437,8.659s-0.924,8.304-0.924,13.94c0,5.67,0.312,10.337,0.924,14c0.612,3.65,1.427,6.54,2.437,8.672
				c1.011,2.106,2.162,3.601,3.467,4.434c1.304,0.845,2.658,1.262,4.06,1.262c1.404,0,2.774-0.416,4.104-1.262
				c1.334-0.833,2.511-2.328,3.533-4.434c1.03-2.132,1.856-5.022,2.481-8.672C536.706,461.223,537.018,456.556,537.018,450.886z"/>
			<path style="fill:#FFFFFF;" d="M581.938,441.38c0,2.12-0.293,4.03-0.882,5.769c-0.582,1.715-1.372,3.21-2.364,4.434
				c-0.992,1.249-2.137,2.205-3.435,2.866c-1.298,0.662-2.645,1.005-4.042,1.005c-1.549,0-2.97-0.342-4.268-1.005
				c-1.292-0.661-2.419-1.617-3.368-2.866c-0.956-1.224-1.697-2.719-2.23-4.434c-0.533-1.74-0.796-3.65-0.796-5.769
				c0-2.192,0.263-4.177,0.796-5.94c0.533-1.763,1.274-3.258,2.23-4.508c0.948-1.237,2.076-2.204,3.368-2.878
				c1.298-0.674,2.719-1.016,4.268-1.016c1.544,0,2.976,0.342,4.293,1.016c1.317,0.675,2.45,1.642,3.405,2.878
				c0.95,1.249,1.691,2.744,2.224,4.508C581.669,437.203,581.938,439.187,581.938,441.38z M596.673,429.266
				c0.295-0.416,0.643-0.796,1.054-1.126c0.404-0.344,0.973-0.514,1.708-0.514h6.303l-34.026,55.3
				c-0.288,0.454-0.643,0.822-1.066,1.115c-0.416,0.306-0.931,0.453-1.53,0.453h-6.43L596.673,429.266z M575.288,441.38
				c0-1.409-0.105-2.584-0.314-3.539c-0.208-0.956-0.495-1.727-0.863-2.303c-0.367-0.563-0.796-0.98-1.298-1.224
				c-0.503-0.257-1.035-0.38-1.599-0.38c-0.569,0-1.096,0.123-1.585,0.38c-0.49,0.245-0.907,0.661-1.255,1.224
				c-0.344,0.576-0.618,1.347-0.815,2.303c-0.196,0.956-0.3,2.131-0.3,3.539c0,1.385,0.104,2.536,0.3,3.443
				c0.197,0.931,0.472,1.666,0.815,2.229c0.349,0.563,0.765,0.956,1.255,1.188c0.489,0.233,1.016,0.355,1.585,0.355
				c0.564,0,1.096-0.122,1.599-0.355c0.502-0.232,0.931-0.625,1.298-1.188c0.367-0.563,0.655-1.298,0.863-2.229
				C575.183,443.916,575.288,442.765,575.288,441.38z M607.838,471.131c0,2.107-0.295,4.042-0.882,5.757
				c-0.582,1.727-1.372,3.21-2.364,4.459c-0.992,1.237-2.137,2.18-3.435,2.853c-1.299,0.674-2.646,0.992-4.042,0.992
				c-1.55,0-2.97-0.319-4.268-0.992c-1.293-0.674-2.419-1.617-3.369-2.853c-0.949-1.249-1.697-2.732-2.229-4.459
				c-0.533-1.715-0.796-3.65-0.796-5.757c0-2.205,0.263-4.177,0.796-5.94c0.532-1.763,1.279-3.271,2.229-4.508
				s2.076-2.192,3.369-2.853c1.298-0.674,2.718-1.005,4.268-1.005c1.543,0,2.976,0.331,4.293,1.005
				c1.317,0.661,2.449,1.617,3.405,2.853c0.948,1.237,1.69,2.744,2.222,4.508C607.569,466.955,607.838,468.927,607.838,471.131z
				 M601.187,471.131c0-1.421-0.104-2.596-0.312-3.552c-0.208-0.956-0.497-1.715-0.864-2.29c-0.361-0.576-0.795-0.992-1.298-1.237
				c-0.502-0.246-1.035-0.367-1.598-0.367c-0.563,0-1.096,0.122-1.587,0.367c-0.489,0.245-0.906,0.661-1.256,1.237
				c-0.342,0.576-0.612,1.335-0.814,2.29c-0.196,0.956-0.295,2.131-0.295,3.552c0,1.385,0.099,2.536,0.295,3.454
				c0.202,0.907,0.471,1.642,0.814,2.205c0.35,0.563,0.766,0.956,1.256,1.2c0.49,0.232,1.023,0.342,1.587,0.342
				c0.563,0,1.096-0.11,1.598-0.342c0.503-0.245,0.937-0.637,1.298-1.2c0.367-0.563,0.656-1.298,0.864-2.205
				C601.083,473.668,601.187,472.516,601.187,471.131z"/>
		</g>
	</g>
</g>
<g id="Layer_1">
</g>
</svg>
