<?xml version="1.0" encoding="iso-8859-1"?>
<!-- Generator: Adobe Illustrator 17.1.0, SVG Export Plug-In . SVG Version: 6.00 Build 0)  -->
<!DOCTYPE svg PUBLIC "-//W3C//DTD SVG 1.1//EN" "http://www.w3.org/Graphics/SVG/1.1/DTD/svg11.dtd">
<svg version="1.1" xmlns="http://www.w3.org/2000/svg" xmlns:xlink="http://www.w3.org/1999/xlink" x="0px" y="0px"
	 viewBox="0 0 1010 1010" style="enable-background:new 0 0 1010 1010;" xml:space="preserve">
<g id="security-shield">
	<path id="label_4_" style="fill:#FC6220;" d="M505,0c278.895,0,505,226.106,505,505.003C1010,783.913,783.895,1010,505,1010
		S0,783.913,0,505.003C0,226.106,226.105,0,505,0z"/>
	<g id="icon_4_">
		<path style="fill:#FFFFFF;" d="M504.987,449.681v52.521H331.062c-3.552-16.383-6.076-33.879-7.35-52.521
			c-0.538-8.544-0.906-63.104-0.906-72.118c91.102-26.083,137.573-86.64,182.181-86.64V449.681z M504.987,717.142
			c0,0,138.554-51.89,173.952-214.94H504.987V717.142z M723.915,355.919v21.643c0,6.546-0.293,64.138-1.005,74.47
			c-1.273,19.708-3.968,39.195-8.058,57.922c-39.195,180.547-190.535,239.198-196.954,241.581l-10.092,3.809
			c-0.907,0.33-1.837,0.502-2.818,0.502c-0.954,0-1.91-0.172-2.817-0.502l-10.068-3.809
			c-6.443-2.383-157.784-61.059-196.953-241.581c-4.042-18.727-6.785-38.214-8.035-57.922c-0.711-10.362-1.03-67.924-1.03-74.47
			v-21.643c0-3.571,2.377-6.694,5.831-7.698l20.798-5.989c41.742-11.943,73.465-32.337,101.416-50.384
			c31.381-20.228,58.499-37.695,90.858-37.695c32.434,0,59.503,17.466,90.883,37.627c27.976,18.115,59.65,38.509,101.466,50.451
			l20.773,5.989C721.539,349.226,723.915,352.349,723.915,355.919z M707.918,361.964l-15.041-4.311
			c-44.045-12.598-76.822-33.707-105.703-52.338c-29.25-18.837-54.481-35.091-82.187-35.091c-27.656,0-52.937,16.254-82.137,35.048
			c-28.93,18.673-61.658,39.783-105.703,52.38l-15.017,4.311v15.599c0,7.839,0.392,64.108,0.979,73.416
			c1.2,18.911,3.822,37.614,7.766,55.614c37.308,172.04,180.761,227.642,186.86,229.938l7.251,2.681l7.252-2.681
			c6.099-2.297,149.626-57.898,186.909-229.938c3.945-17.999,6.516-36.703,7.766-55.614c0.612-9.309,1.003-65.578,1.003-73.416
			V361.964z"/>
	</g>
</g>
<g id="Layer_1">
</g>
</svg>
