<?xml version="1.0" encoding="iso-8859-1"?>
<!-- Generator: Adobe Illustrator 17.1.0, SVG Export Plug-In . SVG Version: 6.00 Build 0)  -->
<!DOCTYPE svg PUBLIC "-//W3C//DTD SVG 1.1//EN" "http://www.w3.org/Graphics/SVG/1.1/DTD/svg11.dtd">
<svg version="1.1" xmlns="http://www.w3.org/2000/svg" xmlns:xlink="http://www.w3.org/1999/xlink" x="0px" y="0px"
	 viewBox="0 0 1010 1010" style="enable-background:new 0 0 1010 1010;" xml:space="preserve">
<g id="secure-socket-layer-ssl">
	<path id="label_33_" style="fill:#394145;" d="M504.994,0C783.904,0,1010,226.097,1010,505c0,278.889-226.096,505-505.006,505
		C226.096,1010,0,783.889,0,505C0,226.097,226.096,0,504.994,0z"/>
	<g id="icon_33_">
		<path style="fill:#FFFFFF;" d="M657.198,451.449v-47.253c0-82.725-68.273-150.042-152.173-150.042
			c-83.951,0-152.223,67.317-152.223,150.042v47.253h-33.829v304.397h372.055V451.449H657.198z M420.413,404.196
			c0-44.682,38.778-82.407,84.612-82.407c45.783,0,84.513,37.725,84.513,82.407v47.253H420.413V404.196z M505.025,700.214
			c-52.399,0-94.901-42.477-94.901-94.875c0-52.399,42.502-94.876,94.901-94.876c52.373,0,94.875,42.477,94.875,94.876
			C599.9,657.737,557.398,700.214,505.025,700.214z"/>
		<polygon style="fill:#FFFFFF;" points="492.335,612.491 462.695,590.64 450.739,603.501 487.387,646.101 493.805,653.621 
			500.541,646.346 569.304,572.047 557.202,559.21 		"/>
	</g>
</g>
<g id="Layer_1">
</g>
</svg>
