<?xml version="1.0" encoding="iso-8859-1"?>
<!-- Generator: Adobe Illustrator 17.1.0, SVG Export Plug-In . SVG Version: 6.00 Build 0)  -->
<!DOCTYPE svg PUBLIC "-//W3C//DTD SVG 1.1//EN" "http://www.w3.org/Graphics/SVG/1.1/DTD/svg11.dtd">
<svg version="1.1" xmlns="http://www.w3.org/2000/svg" xmlns:xlink="http://www.w3.org/1999/xlink" x="0px" y="0px"
	 viewBox="0 0 1010 1009.994" style="enable-background:new 0 0 1010 1009.994;" xml:space="preserve">
<g id="shared-server">
	<circle id="label_7_" style="fill:#394145;" cx="505.003" cy="504.997" r="504.997"/>
	<g id="icon_7_">
		<path style="fill:#FFFFFF;" d="M750.905,699.698c0.196-0.527,0.325-1.091,0.325-1.691V621.16c0-2.437-1.984-4.421-4.422-4.421
			H625.72c-2.431,0-4.427,1.984-4.427,4.421v76.847c0,0.599,0.11,1.164,0.337,1.691H750.905z M628.28,623.732h115.961v69.51H628.28
			V623.732z M767.819,718.106c0,0,0,5.525-5.53,5.525c-5.517,0-146.527,0-152.057,0c-5.531,0-5.531-5.525-5.531-5.525h16.928
			h129.275H767.819z"/>
		<path style="fill:#FFFFFF;" d="M750.905,380.995c0.196-0.514,0.325-1.077,0.325-1.666v-76.847c0-2.437-1.984-4.434-4.422-4.434
			H625.72c-2.431,0-4.427,1.997-4.427,4.434v76.847c0,0.588,0.11,1.151,0.337,1.666H750.905z M628.28,305.042h115.961v69.51H628.28
			V305.042z M767.819,399.428c0,0,0,5.512-5.53,5.512c-5.517,0-146.527,0-152.057,0c-5.531,0-5.531-5.512-5.531-5.512h16.928
			h129.275H767.819z"/>
		<path style="fill:#FFFFFF;" d="M750.905,540.346c0.196-0.527,0.325-1.079,0.325-1.666v-76.859c0-2.437-1.984-4.421-4.422-4.421
			H625.72c-2.431,0-4.427,1.984-4.427,4.421v76.859c0,0.587,0.11,1.139,0.337,1.666H750.905z M628.28,464.394h115.961v69.497H628.28
			V464.394z M767.819,558.767c0,0,0,5.512-5.53,5.512c-5.517,0-146.527,0-152.057,0c-5.531,0-5.531-5.512-5.531-5.512h16.928
			h129.275H767.819z"/>
		<path style="fill:#0099CC;" d="M486.388,394.566V497.06h-23.7v12.678h23.7V612.22c0.006,18.593,15.078,33.657,33.671,33.657
			h81.287v-11.476H520.06c-12.249-0.013-22.157-9.934-22.17-22.181V509.738h85.236V497.06H497.89V394.566
			c0.013-12.235,9.921-22.157,22.17-22.157h81.287V360.92H520.06C501.467,360.92,486.395,375.985,486.388,394.566z"/>
		<g>
			<rect x="410.945" y="472.343" style="fill:#FFFFFF;" width="10.221" height="10.216"/>
			<path style="fill:#FFFFFF;" d="M394.171,471.682c-3.172,0-5.721,2.573-5.721,5.768c0,3.173,2.549,5.72,5.721,5.72
				c3.197,0,5.763-2.547,5.763-5.72C399.934,474.254,397.368,471.682,394.171,471.682z"/>
			<path style="fill:#FFFFFF;" d="M371.493,425.738h-91.471c-2.046,0-3.741,1.715-3.741,3.858c0,2.107,1.696,3.822,3.741,3.822
				h91.471c2.069,0,3.754-1.715,3.754-3.822C375.247,427.453,373.563,425.738,371.493,425.738z"/>
			<path style="fill:#FFFFFF;" d="M371.493,473.605h-91.471c-2.046,0-3.741,1.714-3.741,3.845c0,2.12,1.696,3.847,3.741,3.847
				h91.471c2.069,0,3.754-1.727,3.754-3.847C375.247,475.319,373.563,473.605,371.493,473.605z"/>
			<rect x="410.945" y="568.063" style="fill:#FFFFFF;" width="10.221" height="10.228"/>
			<path style="fill:#FFFFFF;" d="M394.171,423.816c-3.172,0-5.721,2.584-5.721,5.781c0,3.161,2.549,5.721,5.721,5.721
				c3.197,0,5.763-2.56,5.763-5.721C399.934,426.399,397.368,423.816,394.171,423.816z"/>
			<path style="fill:#FFFFFF;" d="M371.493,521.496h-91.471c-2.046,0-3.741,1.702-3.741,3.82c0,2.12,1.696,3.847,3.741,3.847h91.471
				c2.069,0,3.754-1.727,3.754-3.847C375.247,523.198,373.563,521.496,371.493,521.496z"/>
			<path style="fill:#FFFFFF;" d="M371.493,569.35h-91.471c-2.046,0-3.741,1.702-3.741,3.833c0,2.107,1.696,3.834,3.741,3.834
				h91.471c2.069,0,3.754-1.727,3.754-3.834C375.247,571.052,373.563,569.35,371.493,569.35z"/>
			<rect x="410.945" y="520.197" style="fill:#FFFFFF;" width="10.221" height="10.24"/>
			<path style="fill:#FFFFFF;" d="M394.171,519.561c-3.172,0-5.721,2.571-5.721,5.756c0,3.173,2.549,5.733,5.721,5.733
				c3.197,0,5.763-2.56,5.763-5.733C399.934,522.132,397.368,519.561,394.171,519.561z"/>
			<rect x="410.945" y="328.743" style="fill:#FFFFFF;" width="10.221" height="10.214"/>
			<path style="fill:#FFFFFF;" d="M394.171,328.094c-3.172,0-5.721,2.572-5.721,5.769c0,3.148,2.549,5.708,5.721,5.708
				c3.197,0,5.763-2.56,5.763-5.708C399.934,330.666,397.368,328.094,394.171,328.094z"/>
			<path style="fill:#FFFFFF;" d="M371.493,330.018h-91.471c-2.046,0-3.741,1.715-3.741,3.845c0,2.095,1.696,3.834,3.741,3.834
				h91.471c2.069,0,3.754-1.74,3.754-3.834C375.247,331.732,373.563,330.018,371.493,330.018z"/>
			<path style="fill:#FFFFFF;" d="M394.171,567.415c-3.172,0-5.721,2.572-5.721,5.768c0,3.173,2.549,5.733,5.721,5.733
				c3.197,0,5.763-2.56,5.763-5.733C399.934,569.987,397.368,567.415,394.171,567.415z"/>
			<path style="fill:#FFFFFF;" d="M242.181,285.506v438.981h210.317V285.506H242.181z M347.327,692.494
				c-12.757,0-23.137-10.374-23.137-23.137c0-12.787,10.38-23.173,23.137-23.173c12.763,0,23.156,10.386,23.156,23.173
				C370.482,682.121,360.09,692.494,347.327,692.494z M418.117,590.895H276.544c-9.37,0-17.001-7.839-17.001-17.479
				c0-9.676,7.631-17.515,17.001-17.515h141.573c9.375,0,17.019,7.839,17.019,17.515
				C435.136,583.057,427.492,590.895,418.117,590.895z M418.117,543.04H276.544c-9.37,0-17.001-7.85-17.001-17.49
				c0-9.676,7.631-17.515,17.001-17.515h141.573c9.375,0,17.019,7.839,17.019,17.515C435.136,535.19,427.492,543.04,418.117,543.04z
				 M418.117,495.174H276.544c-9.37,0-17.001-7.875-17.001-17.49c0-9.677,7.631-17.528,17.001-17.528h141.573
				c9.375,0,17.019,7.852,17.019,17.528C435.136,487.298,427.492,495.174,418.117,495.174z M418.117,447.307H276.544
				c-9.37,0-17.001-7.863-17.001-17.478c0-9.689,7.631-17.54,17.001-17.54h141.573c9.375,0,17.019,7.852,17.019,17.54
				C435.136,439.444,427.492,447.307,418.117,447.307z M418.117,399.441H276.544c-9.37,0-17.001-7.863-17.001-17.49
				c0-9.676,7.631-17.528,17.001-17.528h141.573c9.375,0,17.019,7.852,17.019,17.528
				C435.136,391.578,427.492,399.441,418.117,399.441z M418.117,351.562H276.544c-9.37,0-17.001-7.85-17.001-17.49
				c0-9.676,7.631-17.515,17.001-17.515h141.573c9.375,0,17.019,7.839,17.019,17.515
				C435.136,343.712,427.492,351.562,418.117,351.562z"/>
			<rect x="410.945" y="376.61" style="fill:#FFFFFF;" width="10.221" height="10.227"/>
			<path style="fill:#FFFFFF;" d="M394.171,375.96c-3.172,0-5.721,2.572-5.721,5.769c0,3.161,2.549,5.721,5.721,5.721
				c3.197,0,5.763-2.56,5.763-5.721C399.934,378.533,397.368,375.96,394.171,375.96z"/>
			<path style="fill:#FFFFFF;" d="M371.493,377.884h-91.471c-2.046,0-3.741,1.715-3.741,3.845c0,2.107,1.696,3.834,3.741,3.834
				h91.471c2.069,0,3.754-1.727,3.754-3.834C375.247,379.599,373.563,377.884,371.493,377.884z"/>
			<rect x="410.945" y="424.477" style="fill:#FFFFFF;" width="10.221" height="10.227"/>
		</g>
	</g>
</g>
<g id="Layer_1">
</g>
</svg>
