<?xml version="1.0" encoding="iso-8859-1"?>
<!-- Generator: Adobe Illustrator 17.1.0, SVG Export Plug-In . SVG Version: 6.00 Build 0)  -->
<!DOCTYPE svg PUBLIC "-//W3C//DTD SVG 1.1//EN" "http://www.w3.org/Graphics/SVG/1.1/DTD/svg11.dtd">
<svg version="1.1" xmlns="http://www.w3.org/2000/svg" xmlns:xlink="http://www.w3.org/1999/xlink" x="0px" y="0px"
	 viewBox="0 0 1010 1010" style="enable-background:new 0 0 1010 1010;" xml:space="preserve">
<g id="shared-folder">
	<path id="label_11_" style="fill:#FC6220;" d="M505,0c278.902,0,505,226.098,505,505c0,278.914-226.099,505-505,505
		C226.086,1010,0,783.914,0,505C0,226.098,226.086,0,505,0z"/>
	<g id="icon_11_">
		<g>
			<rect x="597.255" y="681.499" style="fill:#FFFFFF;" width="131.597" height="12.224"/>
			<rect x="281.137" y="681.499" style="fill:#FFFFFF;" width="131.62" height="12.224"/>
			<polygon style="fill:#394145;" points="493.903,631.66 516.121,631.66 516.121,669.9 587.101,669.9 587.101,706.939 
				422.936,706.939 422.936,669.9 493.903,669.9 			"/>
		</g>
		<g>
			<path style="fill:#FFFFFF;" d="M755.846,336.144V618.31H254.154V386.203c0-18.189,14.881-33.083,33.083-33.083h255.169
				c11.735,0,21.545-8.316,23.861-19.389c0.134-0.636,0.257-1.322,0.33-1.995l0,0c2.181-16.119,16.045-28.674,32.753-28.674h123.426
				C740.977,303.061,755.846,317.944,755.846,336.144z"/>
		</g>
	</g>
</g>
<g id="Layer_1">
</g>
</svg>
