<?xml version="1.0" encoding="iso-8859-1"?>
<!-- Generator: Adobe Illustrator 17.1.0, SVG Export Plug-In . SVG Version: 6.00 Build 0)  -->
<!DOCTYPE svg PUBLIC "-//W3C//DTD SVG 1.1//EN" "http://www.w3.org/Graphics/SVG/1.1/DTD/svg11.dtd">
<svg version="1.1" xmlns="http://www.w3.org/2000/svg" xmlns:xlink="http://www.w3.org/1999/xlink" x="0px" y="0px"
	 viewBox="0 0 1010 1010" style="enable-background:new 0 0 1010 1010;" xml:space="preserve">
<g id="shared-hosting">
	<path id="label_5_" style="fill:#0099CC;" d="M504.994,0C783.893,0,1010,226.107,1010,505.006
		C1010,783.917,783.893,1010,504.994,1010C226.096,1010,0,783.917,0,505.006C0,226.107,226.096,0,504.994,0z"/>
	<g id="icon_5_">
		<path style="fill:#FFFFFF;" d="M308.285,752.338h-42.159v-7.386h42.159V752.338z M266.25,753.305l-1.837,3.919
			c0,0,0.196,1.152,0.956,1.152c0.759,0,43.285,0,44.057,0c0.771,0,0.771-1.152,0.771-1.152l-1.837-3.919H266.25z M354.719,651.326
			v76.736v1.8v8.978c0,2.364-1.727,4.299-3.834,4.299H220.624c-2.107,0-3.834-1.935-3.834-4.299v-8.978v-1.8v-76.736
			c0-2.12,1.727-3.834,3.834-3.834h130.261C352.992,647.491,354.719,649.206,354.719,651.326z M346.696,657.021H224.482v69.007
			h122.214V657.021z"/>
		<path style="fill:#FFFFFF;" d="M528.389,752.338h-42.16v-7.386h42.16V752.338z M486.352,753.305l-1.838,3.919
			c0,0,0.196,1.152,0.956,1.152c0.759,0,43.286,0,44.057,0s0.771-1.152,0.771-1.152l-1.837-3.919H486.352z M574.809,651.326v76.736
			v1.8v8.978c0,2.364-1.714,4.299-3.821,4.299H440.727c-2.118,0-3.834-1.935-3.834-4.299v-8.978v-1.8v-76.736
			c0-2.12,1.716-3.834,3.834-3.834h130.261C573.095,647.491,574.809,649.206,574.809,651.326z M566.8,657.021H444.585v69.007H566.8
			V657.021z"/>
		<path style="fill:#FFFFFF;" d="M746.777,752.338h-42.16v-7.386h42.16V752.338z M704.74,753.305l-1.837,3.919
			c0,0,0.197,1.152,0.956,1.152s43.286,0,44.057,0c0.772,0,0.772-1.152,0.772-1.152l-1.838-3.919H704.74z M793.21,651.326v76.736
			v1.8v8.978c0,2.364-1.727,4.299-3.833,4.299H659.115c-2.107,0-3.833-1.935-3.833-4.299v-8.978v-1.8v-76.736
			c0-2.12,1.726-3.834,3.833-3.834h130.262C791.483,647.491,793.21,649.206,793.21,651.326z M785.188,657.021H662.973v69.007
			h122.215V657.021z"/>
		<g>
			<rect x="282.748" y="517.611" style="fill:#394145;" width="9.199" height="11.61"/>
			<rect x="282.748" y="540.809" style="fill:#394145;" width="9.199" height="11.61"/>
			<rect x="282.748" y="564.018" style="fill:#394145;" width="9.199" height="11.612"/>
			<rect x="282.748" y="587.229" style="fill:#394145;" width="9.199" height="11.612"/>
			<rect x="282.748" y="610.453" style="fill:#394145;" width="9.199" height="11.587"/>
			<polygon style="fill:#394145;" points="282.748,495.637 282.748,506.01 291.946,506.01 291.946,504.871 293.11,504.871 
				293.11,495.637 			"/>
			<rect x="304.709" y="495.637" style="fill:#394145;" width="11.599" height="9.235"/>
			<rect x="327.908" y="495.637" style="fill:#394145;" width="11.612" height="9.235"/>
			<rect x="351.131" y="495.637" style="fill:#394145;" width="11.599" height="9.235"/>
			<rect x="374.329" y="495.637" style="fill:#394145;" width="11.61" height="9.235"/>
			<rect x="397.551" y="495.637" style="fill:#394145;" width="11.588" height="9.235"/>
		</g>
		<g>
			<rect x="718.887" y="517.611" style="fill:#394145;" width="9.211" height="11.61"/>
			<rect x="718.887" y="540.809" style="fill:#394145;" width="9.211" height="11.61"/>
			<rect x="718.887" y="564.018" style="fill:#394145;" width="9.211" height="11.612"/>
			<rect x="718.887" y="587.229" style="fill:#394145;" width="9.211" height="11.612"/>
			<rect x="718.887" y="610.453" style="fill:#394145;" width="9.211" height="11.587"/>
			<polygon style="fill:#394145;" points="728.098,495.637 728.098,506.01 718.887,506.01 718.887,504.871 717.724,504.871 
				717.724,495.637 			"/>
			<rect x="694.526" y="495.637" style="fill:#394145;" width="11.61" height="9.235"/>
			<rect x="671.326" y="495.637" style="fill:#394145;" width="11.612" height="9.235"/>
			<rect x="648.104" y="495.637" style="fill:#394145;" width="11.612" height="9.235"/>
			<rect x="624.906" y="495.637" style="fill:#394145;" width="11.587" height="9.235"/>
			<rect x="601.695" y="495.637" style="fill:#394145;" width="11.599" height="9.235"/>
		</g>
		<g>
			<rect x="503.084" y="587.229" style="fill:#394145;" width="9.211" height="11.612"/>
			<rect x="503.084" y="610.453" style="fill:#394145;" width="9.211" height="11.587"/>
		</g>
		<g>
			<rect x="503.084" y="380.343" style="fill:#394145;" width="9.211" height="11.599"/>
			<rect x="503.084" y="403.553" style="fill:#394145;" width="9.211" height="11.587"/>
		</g>
		<g>
			<path style="fill:#FFFFFF;" d="M567.167,527.532H444.561c-11.416,0-20.651,9.247-20.651,20.626
				c0,11.378,9.235,20.615,20.651,20.615h122.606c11.391,0,20.626-9.236,20.626-20.615
				C587.793,536.779,578.558,527.532,567.167,527.532z M447.255,555.213c-3.894,0-7.068-3.172-7.068-7.055
				c0-3.883,3.173-7.042,7.068-7.042c3.896,0,7.055,3.159,7.055,7.042C454.31,552.041,451.151,555.213,447.255,555.213z"/>
			<path style="fill:#FFFFFF;" d="M567.167,477.84H444.561c-11.416,0-20.651,9.235-20.651,20.613
				c0,11.367,9.235,20.602,20.651,20.602h122.606c11.391,0,20.626-9.235,20.626-20.602
				C587.793,487.075,578.558,477.84,567.167,477.84z M447.255,505.496c-3.894,0-7.068-3.172-7.068-7.043
				c0-3.907,3.173-7.055,7.068-7.055c3.896,0,7.055,3.148,7.055,7.055C454.31,502.324,451.151,505.496,447.255,505.496z"/>
			<path style="fill:#FFFFFF;" d="M567.167,428.111H444.561c-11.416,0-20.651,9.235-20.651,20.615
				c0,11.391,9.235,20.626,20.651,20.626h122.606c11.391,0,20.626-9.235,20.626-20.626
				C587.793,437.346,578.558,428.111,567.167,428.111z M447.255,455.792c-3.894,0-7.068-3.159-7.068-7.066
				c0-3.896,3.173-7.055,7.068-7.055c3.896,0,7.055,3.159,7.055,7.055C454.31,452.633,451.151,455.792,447.255,455.792z"/>
		</g>
		<path style="fill:#FFFFFF;" d="M530.446,366.037h-46.004v-8.06h46.004V366.037z M484.564,367.09l-1.997,4.287
			c0,0,0.208,1.262,1.042,1.262c0.833,0,47.242,0,48.086,0c0.833,0,0.833-1.262,0.833-1.262l-2.008-4.287H484.564z M581.106,255.814
			v83.73v1.972v9.799c0,2.571-1.874,4.691-4.177,4.691H434.787c-2.303,0-4.189-2.12-4.189-4.691v-9.799v-1.972v-83.73
			c0-2.303,1.886-4.189,4.189-4.189h142.142C579.232,251.625,581.106,253.511,581.106,255.814z M572.36,262.036H439v75.29h133.36
			V262.036z"/>
	</g>
</g>
<g id="Layer_1">
</g>
</svg>
