<?xml version="1.0" encoding="iso-8859-1"?>
<!-- Generator: Adobe Illustrator 17.1.0, SVG Export Plug-In . SVG Version: 6.00 Build 0)  -->
<!DOCTYPE svg PUBLIC "-//W3C//DTD SVG 1.1//EN" "http://www.w3.org/Graphics/SVG/1.1/DTD/svg11.dtd">
<svg version="1.1" xmlns="http://www.w3.org/2000/svg" xmlns:xlink="http://www.w3.org/1999/xlink" x="0px" y="0px"
	 viewBox="0 0 1010 1009.999" style="enable-background:new 0 0 1010 1009.999;" xml:space="preserve">
<g id="ssl-certificated-2">
	<path id="label_32_" style="fill:#FC6220;" d="M505.006,0C783.904,0,1010,226.119,1010,504.994
		c0,278.911-226.096,505.005-504.994,505.005S0,783.904,0,504.994C0,226.119,226.108,0,505.006,0z"/>
	<g id="icon_32_">
		<path style="fill:#FFFFFF;" d="M657.198,451.461v-47.254c0-82.737-68.273-150.054-152.199-150.054S352.801,321.47,352.801,404.207
			v47.254h-33.817v304.384h372.031V451.461H657.198z M420.449,404.207c0-44.669,38.742-82.407,84.55-82.407
			c45.808,0,84.55,37.737,84.55,82.407v47.254h-169.1V404.207z M420.156,689.765c-24.4,0-37.04-14.453-37.04-39.734v-9.724h23.493
			v11.292c0,11.293,4.96,15.361,12.861,15.361c7.912,0,12.885-4.068,12.885-15.361c0-32.506-48.553-38.607-48.553-83.778
			c0-25.293,12.421-39.747,36.573-39.747c24.167,0,36.586,14.454,36.586,39.747v4.972h-23.479v-6.552
			c0-11.281-4.52-15.58-12.421-15.58c-7.912,0-12.419,4.299-12.419,15.58c0,32.52,48.553,38.619,48.553,83.79
			C457.194,675.313,444.542,689.765,420.156,689.765z M515.876,689.765c-24.386,0-37.039-14.453-37.039-39.734v-9.724h23.479v11.292
			c0,11.293,4.973,15.361,12.886,15.361c7.9,0,12.861-4.068,12.861-15.361c0-32.506-48.553-38.607-48.553-83.778
			c0-25.293,12.419-39.747,36.586-39.747c24.165,0,36.586,14.454,36.586,39.747v4.972H529.19v-6.552
			c0-11.281-4.508-15.58-12.42-15.58c-7.9,0-12.421,4.299-12.421,15.58c0,32.52,48.553,38.619,48.553,83.79
			C552.902,675.313,540.262,689.765,515.876,689.765z M644.116,687.965h-65.713V529.887h24.84v135.492h40.873V687.965z"/>
	</g>
</g>
<g id="Layer_1">
</g>
</svg>
