<?xml version="1.0" encoding="iso-8859-1"?>
<!-- Generator: Adobe Illustrator 17.1.0, SVG Export Plug-In . SVG Version: 6.00 Build 0)  -->
<!DOCTYPE svg PUBLIC "-//W3C//DTD SVG 1.1//EN" "http://www.w3.org/Graphics/SVG/1.1/DTD/svg11.dtd">
<svg version="1.1" xmlns="http://www.w3.org/2000/svg" xmlns:xlink="http://www.w3.org/1999/xlink" x="0px" y="0px"
	 viewBox="0 0 1010 1010" style="enable-background:new 0 0 1010 1010;" xml:space="preserve">
<g id="ssl-certificated">
	<path id="label_25_" style="fill:#0099CC;" d="M504.994,0C783.892,0,1010,226.11,1010,505.011
		C1010,783.914,783.892,1010,504.994,1010S0,783.914,0,505.011C0,226.11,226.096,0,504.994,0z"/>
	<g id="icon_26_">
		<path style="fill-rule:evenodd;clip-rule:evenodd;fill:#FFFFFF;" d="M665.331,328.207l9.394,30.548l30.536,9.407l-30.536,9.382
			l-9.394,30.523l-9.394-30.523l-30.548-9.382l30.548-9.407L665.331,328.207L665.331,328.207z M584.577,254.154l12.995,42.306
			l42.343,13.033l-42.343,13.031l-12.995,42.33l-13.031-42.33l-42.33-13.031l42.33-13.033L584.577,254.154L584.577,254.154z"/>
		<path style="fill:#FFFFFF;" d="M565.936,520.777v-36.501c0-63.887-52.717-115.893-117.535-115.893S330.852,420.39,330.852,484.276
			v36.501h-26.113v235.069h287.322V520.777H565.936z M469.394,710.038h-48.846l12.432-67.636
			c-7.288-4.238-12.432-11.807-12.432-20.822c0-13.523,10.926-24.424,24.399-24.424c13.511,0,24.447,10.901,24.447,24.424
			c0,9.014-5.156,16.583-12.444,20.822L469.394,710.038z M513.696,520.777H383.104v-36.501c0-34.491,29.911-63.642,65.297-63.642
			c35.373,0,65.295,29.151,65.295,63.642V520.777z"/>
	</g>
</g>
<g id="Layer_1">
</g>
</svg>
