<?xml version="1.0" encoding="iso-8859-1"?>
<!-- Generator: Adobe Illustrator 17.1.0, SVG Export Plug-In . SVG Version: 6.00 Build 0)  -->
<!DOCTYPE svg PUBLIC "-//W3C//DTD SVG 1.1//EN" "http://www.w3.org/Graphics/SVG/1.1/DTD/svg11.dtd">
<svg version="1.1" xmlns="http://www.w3.org/2000/svg" xmlns:xlink="http://www.w3.org/1999/xlink" x="0px" y="0px"
	 viewBox="0 0 1010 1010" style="enable-background:new 0 0 1010 1010;" xml:space="preserve">
<g id="technical-support-2">
	<path id="label_30_" style="fill:#0099CC;" d="M504.997,0C783.909,0,1010,226.104,1010,504.976
		C1010,783.896,783.909,1010,504.997,1010C226.11,1010,0,783.896,0,504.976C0,226.104,226.11,0,504.997,0z"/>
	<g id="icon_30_">
		<path style="fill:#FFFFFF;" d="M735.167,295.896c-27.645-27.608-72.369-27.608-99.971,0L458.476,472.59l99.953,99.971
			l176.737-176.719C762.737,368.234,762.737,323.503,735.167,295.896z M506.557,462.866l149.4-149.455
			c3.282-3.257,8.634-3.257,11.942,0c3.265,3.284,3.265,8.623,0,11.906L518.444,474.746L506.557,462.866z M531.409,487.73
			l161.844-161.875c3.301-3.282,8.617-3.282,11.899,0c3.277,3.282,3.277,8.599,0,11.881L543.284,499.61L531.409,487.73z
			 M717.577,375.045l-149.417,149.43l-11.911-11.906L705.679,363.14c3.301-3.282,8.617-3.282,11.899,0.024
			C720.855,366.422,720.879,371.762,717.577,375.045z M500.494,560.411l-83.325,83.314l9.076,9.063l-11.085,20.186L309.941,737.89
			l-19.5-19.5l65.473-106.07l19.627-10.24l8.893,8.916l83.307-83.337L500.494,560.411z M365.774,495.323
			c-61.627,0-111.619-49.972-111.619-111.607c0-13.473,2.505-26.309,6.878-38.264c1.677,2.352,3.417,4.68,5.524,6.785l40.26,40.248
			c20.504,20.504,53.759,20.504,74.299,0c20.492-20.528,20.492-53.794,0-74.298l-40.236-40.223c-0.888-0.882-1.869-1.47-2.774-2.254
			c8.855-2.279,18.121-3.601,27.668-3.601c61.664,0,111.632,49.972,111.632,111.607S427.439,495.323,365.774,495.323z
			 M617.778,536.674l-87.76,87.796l89.193,89.168c24.203,24.252,63.513,24.252,87.735,0c24.269-24.227,24.269-63.544,0-87.772
			L617.778,536.674z M683.73,690.44c-9.989,10.019-26.285,10.019-36.297,0c-10.056-10.044-10.056-26.285,0-36.329
			c10.013-10.019,26.309-10.019,36.297,0C693.78,664.13,693.78,680.396,683.73,690.44z"/>
	</g>
</g>
<g id="Layer_1">
</g>
</svg>
