<?xml version="1.0" encoding="iso-8859-1"?>
<!-- Generator: Adobe Illustrator 17.1.0, SVG Export Plug-In . SVG Version: 6.00 Build 0)  -->
<!DOCTYPE svg PUBLIC "-//W3C//DTD SVG 1.1//EN" "http://www.w3.org/Graphics/SVG/1.1/DTD/svg11.dtd">
<svg version="1.1" xmlns="http://www.w3.org/2000/svg" xmlns:xlink="http://www.w3.org/1999/xlink" x="0px" y="0px"
	 viewBox="0 0 1010 1010" style="enable-background:new 0 0 1010 1010;" xml:space="preserve">
<g id="window-domain">
	<path id="label" style="fill:#394145;" d="M505.003,1010C226.097,1010,0,783.903,0,504.997C0,226.103,226.097,0,505.003,0
		C783.897,0,1010,226.103,1010,504.997C1010,783.903,783.897,1010,505.003,1010z"/>
	<g id="icon">
		<g>
			<g>
				<path style="fill:#FC6220;" d="M341.147,409.832c-33.169,0-60.066,26.885-60.066,60.068c0,33.162,26.897,60.049,60.066,60.049
					c33.164,0,60.061-26.886,60.061-60.049C401.209,436.717,374.311,409.832,341.147,409.832z M338.318,495.847l-4.262,4.624
					l-4.091-4.765l-23.18-26.965l7.551-8.158l18.79,13.834l41.063-33.738l7.655,8.12L338.318,495.847z"/>
			</g>
			<g>
				<path style="fill:#0099CC;" d="M470.137,500.128l-10.754-40.598h-0.233l-10.289,40.598h-17.203l-19.181-60.484h17.547
					l11.115,41.058h0.227l10.062-41.058h16.137l10.314,40.935h0.227l11.109-40.935h17.074l-19.065,60.484H470.137z"/>
				<path style="fill:#0099CC;" d="M565.358,500.128L554.61,459.53h-0.233l-10.301,40.598h-17.197l-19.181-60.484h17.558
					l11.097,41.058h0.245l10.056-41.058h16.138l10.295,40.935h0.233l11.109-40.935h17.081l-19.053,60.484H565.358z"/>
				<path style="fill:#0099CC;" d="M660.591,500.128l-10.767-40.598h-0.233l-10.289,40.598h-17.209l-19.181-60.484h17.546
					l11.109,41.058h0.251l10.056-41.058h16.144l10.289,40.935h0.233l11.116-40.935h17.087l-19.065,60.484H660.591z"/>
				<path style="fill:#FC6220;" d="M716.377,482.11v18.018h-18.355V482.11H716.377z"/>
			</g>
		</g>
		<path style="fill:#FFFFFF;" d="M594.167,700.57H427.328v-29.244h166.838V700.57z M427.764,704.386l-7.257,15.562
			c0,0,0.759,4.55,3.79,4.55c3.032,0,171.401,0,174.42,0c3.05,0,3.05-4.55,3.05-4.55l-7.257-15.562H427.764z M778.024,300.684
			v303.789v7.129v35.527c0,9.358-6.823,17.044-15.164,17.044H247.165c-8.36,0-15.183-7.686-15.183-17.044v-35.527v-7.129V300.684
			c0-8.36,6.823-15.175,15.183-15.175H762.86C771.201,285.509,778.024,292.324,778.024,300.684z M746.306,323.258H262.48v273.174
			h483.826V323.258z"/>
	</g>
</g>
<g id="Layer_1">
</g>
</svg>
